<svg width="28" height="30" viewBox="0 0 28 30" fill="none" xmlns="http://www.w3.org/2000/svg">
<g clip-path="url(#clip0_3_227)" filter="url(#filter0_d_3_227)">
<path d="M21 11H7C5.89543 11 5 11.8954 5 13V19C5 20.1046 5.89543 21 7 21H21C22.1046 21 23 20.1046 23 19V13C23 11.8954 22.1046 11 21 11Z" stroke="white" stroke-width="2" stroke-linecap="round" stroke-linejoin="round"/>
<path d="M14 7C15.1046 7 16 6.10457 16 5C16 3.89543 15.1046 3 14 3C12.8954 3 12 3.89543 12 5C12 6.10457 12.8954 7 14 7Z" stroke="white" stroke-width="2" stroke-linecap="round" stroke-linejoin="round"/>
<path d="M14 7V11" stroke="white" stroke-width="2" stroke-linecap="round" stroke-linejoin="round"/>
</g>
<defs>
<filter id="filter0_d_3_227" x="-2" y="0" width="32" height="32" filterUnits="userSpaceOnUse" color-interpolation-filters="sRGB">
<feFlood flood-opacity="0" result="BackgroundImageFix"/>
<feColorMatrix in="SourceAlpha" type="matrix" values="0 0 0 0 0 0 0 0 0 0 0 0 0 0 0 0 0 0 127 0" result="hardAlpha"/>
<feOffset dy="4"/>
<feGaussianBlur stdDeviation="2"/>
<feComposite in2="hardAlpha" operator="out"/>
<feColorMatrix type="matrix" values="0 0 0 0 0 0 0 0 0 0 0 0 0 0 0 0 0 0 0.25 0"/>
<feBlend mode="normal" in2="BackgroundImageFix" result="effect1_dropShadow_3_227"/>
<feBlend mode="normal" in="SourceGraphic" in2="effect1_dropShadow_3_227" result="shape"/>
</filter>
<clipPath id="clip0_3_227">
<rect width="24" height="24" fill="white" transform="translate(2)"/>
</clipPath>
</defs>
</svg>
