<svg width="48" height="48" viewBox="0 0 48 48" fill="none" xmlns="http://www.w3.org/2000/svg">
<path d="M1.77208 0.162697C1.50652 0.260265 1.13277 0.523697 0.83771 0.816399C-0.0769883 1.72378 0.0016954 -0.120247 0.0016954 20.1445C0.0016954 40.419 -0.0671528 38.6726 0.818039 39.5507C1.71307 40.4385 0.808203 40.3702 13.8107 40.458L25.2198 40.5361L25.8395 42.9167C26.1739 44.2241 26.5574 45.4925 26.6755 45.7364C26.9902 46.3511 27.6197 47.0146 28.2393 47.3853C29.2425 47.9805 29.4589 48 34.5242 48C39.4026 48 39.7075 47.9707 40.6418 47.5024C41.1729 47.2292 41.9598 46.4975 42.2647 45.9706C42.786 45.0925 42.8843 44.5364 42.8843 42.4387V40.5068L44.2416 40.4483C46.012 40.3605 46.5234 40.2044 47.1824 39.5507C48.0676 38.6726 47.9987 40.4093 47.9987 20.1933C47.9987 -0.0226784 48.0676 1.71402 47.1824 0.826157C46.2579 -0.0909767 48.6085 -0.0031662 23.9609 0.0065918C4.41782 0.0065918 2.1655 0.026104 1.77208 0.162697ZM46.0907 1.42132C46.2382 1.52864 46.4546 1.74329 46.5628 1.88964C46.7595 2.14332 46.7693 2.29942 46.7988 5.3728L46.8283 8.58277H24.0002H1.18195V5.51915C1.18195 2.33845 1.21146 2.09453 1.60488 1.66524C2.08681 1.14813 0.759026 1.1774 24.1182 1.19691L45.8251 1.21643L46.0907 1.42132ZM46.8185 23.8423C46.8185 33.5698 46.789 38.0189 46.7103 38.214C46.5628 38.5945 46.1497 39.0043 45.7956 39.1116C45.6284 39.1604 44.9006 39.2384 44.1924 39.2677L42.8843 39.336V38.0384C42.8843 36.5066 42.7663 36.1456 42.0975 35.5894C41.5368 35.1113 40.9369 34.9748 40.1894 35.1699L39.6484 35.3162L39.1763 34.8479C38.5862 34.2625 37.9764 34.0576 37.2879 34.2137C37.042 34.2625 36.7667 34.3406 36.688 34.3796C36.5896 34.4186 36.4913 34.3406 36.3732 34.1552C36.2847 33.9991 36.029 33.7454 35.7929 33.5893C35.4487 33.3649 35.2717 33.3161 34.7799 33.3161C34.4455 33.3161 34.0816 33.3551 33.9537 33.3942L33.7373 33.4722V29.2573C33.7373 25.179 33.7275 25.0229 33.5308 24.6131C33.098 23.7155 31.9965 23.1886 31.0227 23.4033C30.3146 23.5594 29.7835 23.9691 29.4687 24.5936L29.213 25.1107V31.1794V37.2481L28.6131 36.6334C27.7377 35.726 26.7542 35.2577 25.328 35.0821C24.7772 35.0138 24.2953 35.2089 24.0297 35.5992C23.7445 36.009 23.7445 36.3407 24.0101 36.9456C24.2363 37.4725 24.8854 39.1994 24.8854 39.2872C24.8854 39.3946 2.46056 39.2189 2.17533 39.1116C1.82126 38.975 1.47701 38.6433 1.31965 38.2725C1.20162 38.0091 1.18195 35.5797 1.18195 23.8521V9.75357H24.0002H46.8185V23.8423ZM31.9079 24.6228C32.5866 24.9058 32.5571 24.7009 32.5571 29.9598C32.5571 36.0675 32.6358 38.7994 32.8226 38.9848C33.039 39.1994 33.5013 39.1506 33.6783 38.9067C33.8062 38.7311 33.8357 38.3506 33.8357 36.7993C33.8357 34.926 33.8357 34.9162 34.0816 34.682C34.3373 34.4186 34.7897 34.3601 35.1241 34.5455C35.5175 34.7503 35.5864 35.1309 35.5274 36.9359C35.488 38.4189 35.4979 38.653 35.6454 38.8774C35.7831 39.0921 35.8815 39.1311 36.1765 39.1019C36.7076 39.0628 36.7863 38.8384 36.7863 37.1993V35.8236L37.0912 35.5699C37.4945 35.2284 37.8781 35.2382 38.2813 35.5992L38.6059 35.8821L38.6551 37.7164C38.7042 39.5409 38.7042 39.5604 38.9403 39.6677C39.2354 39.8141 39.5501 39.7068 39.7075 39.4043C39.7861 39.258 39.8353 38.7311 39.8353 37.9993C39.8353 36.6822 39.914 36.4773 40.4648 36.2919C40.868 36.1651 41.2024 36.2724 41.4975 36.6432C41.7139 36.9163 41.7139 36.9359 41.6844 40.7703L41.6549 44.6339L41.3893 45.1218C41.0549 45.7559 40.3959 46.3609 39.7763 46.595C39.3239 46.7707 38.9796 46.7804 34.475 46.7804C29.7638 46.7804 29.6458 46.7804 29.2032 46.5755C28.5934 46.2926 27.9934 45.7364 27.7377 45.2291C27.6295 44.9949 27.1869 43.4436 26.7542 41.7752C26.0558 39.0726 25.5149 37.3261 25.1215 36.5749C25.0526 36.4285 25.0133 36.2919 25.0428 36.2724C25.1411 36.1748 26.0952 36.3895 26.6361 36.6334C27.3541 36.9554 27.9049 37.492 28.6327 38.5555L29.213 39.4043V40.5849C29.213 41.6288 29.2327 41.7752 29.4097 41.9508C29.6556 42.1947 29.813 42.1947 30.1376 41.9411L30.3933 41.7459V33.5503C30.3933 24.7107 30.3834 24.9643 30.9047 24.7107C31.4162 24.457 31.4948 24.457 31.9079 24.6228Z" fill="#FA7436"/>
<path d="M4.5262 2.62119C4.00492 2.72852 3.60167 2.97244 3.21808 3.42125C2.62796 4.10422 2.51977 5.02135 2.95253 5.85067C3.76887 7.42151 6.09004 7.43127 6.90638 5.86043C7.78174 4.20179 6.3556 2.26019 4.5262 2.62119ZM5.58843 3.89933C5.68679 3.89933 6.00152 4.5823 6.00152 4.8067C6.00152 5.74335 4.91962 6.20192 4.21147 5.56773C3.38529 4.83597 4.18196 3.51881 5.26386 3.82127C5.42123 3.8603 5.56876 3.89933 5.58843 3.89933Z" fill="#FA7436"/>
<path d="M10.4272 2.65047C8.76499 2.95293 8.08634 5.10917 9.2666 6.35803C10.0731 7.20687 11.5779 7.25565 12.4238 6.4556C13.2991 5.62628 13.3877 4.30912 12.6205 3.42125C12.0402 2.74804 11.3025 2.48461 10.4272 2.65047ZM11.6566 4.10423C11.9025 4.33839 11.9517 4.46522 11.9517 4.83598C11.9517 5.21649 11.9025 5.32382 11.6271 5.56774C10.919 6.20192 9.83705 5.74336 9.83705 4.80671C9.83705 4.38717 10.1715 3.91885 10.5452 3.82128C10.9976 3.69444 11.3124 3.7725 11.6566 4.10423Z" fill="#FA7436"/>
<path d="M16.4566 2.64136C14.2633 3.05114 13.9584 6.03671 16.0337 6.90506C16.5746 7.12946 17.5877 7.03189 18.0893 6.70016C18.7188 6.28062 19.0236 5.75376 19.063 4.96346C19.0925 4.42684 19.063 4.21219 18.886 3.86095C18.4434 2.94382 17.4598 2.45598 16.4566 2.64136ZM17.686 4.1439C18.0204 4.53417 17.9909 5.19763 17.6172 5.56838C17.3811 5.79279 17.2434 5.85133 16.8894 5.85133C16.1419 5.85133 15.6501 5.24641 15.8468 4.54392C16.0828 3.72436 17.1156 3.49995 17.686 4.1439Z" fill="#FA7436"/>
<path d="M25.4755 4.16311C25.0821 4.29971 24.9542 4.83633 25.2591 5.09976C25.4263 5.25587 26.2623 5.26562 35.2913 5.26562H45.1464L45.3038 5.02171C45.5103 4.70949 45.4218 4.35825 45.0973 4.2119C44.9104 4.12409 42.3827 4.09482 35.2323 4.10457C29.9506 4.10457 25.5542 4.13384 25.4755 4.16311Z" fill="#FA7436"/>
<path d="M11.5485 15.7731C10.7518 16.7292 10.083 17.5293 10.0732 17.5488C10.0535 17.5683 9.7978 17.3732 9.4929 17.1293C9.188 16.8853 8.87327 16.6804 8.80442 16.6804C8.72574 16.6804 8.5487 16.778 8.40117 16.9049C7.99791 17.2463 8.12577 17.5293 9.01097 18.2318C9.73879 18.8172 10.0437 18.9245 10.4666 18.7684C10.742 18.6611 13.8697 14.8657 13.8697 14.6315C13.8697 14.2413 13.6926 14.0461 13.3386 14.0461C13.0238 14.0461 12.9058 14.1632 11.5485 15.7731Z" fill="#FA7436"/>
<path d="M6.28629 14.5837C5.82402 14.8374 5.79452 15.052 5.82402 18.2815L5.85353 21.2866L6.12892 21.5207L6.40432 21.7549H9.55167H12.699L12.9351 21.511C13.1711 21.2866 13.181 21.228 13.181 20.0182C13.181 18.9254 13.1613 18.74 13.0039 18.6035C12.758 18.3791 12.4335 18.3986 12.1974 18.6327C12.0302 18.7986 12.0007 18.9547 12.0007 19.706V20.5841H9.49265H6.98461L7.00428 18.1156L7.03379 15.6569L8.41075 15.6276C9.66969 15.6081 9.79755 15.5886 9.96476 15.4032C10.191 15.1203 10.1811 14.9642 9.88607 14.6812C9.65002 14.4471 9.62051 14.4373 8.09602 14.4373C6.94527 14.4471 6.47317 14.4764 6.28629 14.5837Z" fill="#FA7436"/>
<path d="M19.1806 14.8955C18.6986 15.0712 18.5413 15.5492 18.8658 15.8322C19.033 15.9883 20.0067 15.998 30.8159 15.998C41.3792 15.998 42.589 15.9785 42.7267 15.8419C42.8939 15.6858 42.9332 15.3443 42.8053 15.1492C42.766 15.0907 42.6086 14.9833 42.4611 14.9346C42.166 14.8272 19.4756 14.7882 19.1806 14.8955Z" fill="#FA7436"/>
<path d="M18.8856 19.9003C18.6397 20.1442 18.6298 20.5052 18.8659 20.7101C19.0331 20.8662 20.0068 20.876 30.8061 20.876C42.0677 20.876 42.5694 20.8662 42.7169 20.7004C42.9431 20.4564 42.9234 20.1345 42.6874 19.9003C42.4907 19.7052 42.3628 19.7052 30.7865 19.7052C19.2101 19.7052 19.0823 19.7052 18.8856 19.9003Z" fill="#FA7436"/>
<path d="M11.647 28.0673C10.8995 28.965 10.2307 29.765 10.1717 29.8431C10.0733 29.9699 9.99466 29.9406 9.63075 29.6479C8.89309 29.0528 8.60786 29.004 8.27345 29.404C8.0374 29.6869 8.23411 30.0284 9.01111 30.6334C9.88647 31.3261 10.2405 31.3944 10.7126 30.9456C10.8799 30.7992 11.647 29.9114 12.4339 28.9747C13.919 27.2087 14.0665 26.9355 13.7125 26.5941C13.6338 26.5063 13.4371 26.438 13.2895 26.438C13.0535 26.438 12.8174 26.6721 11.647 28.0673Z" fill="#FA7436"/>
<path d="M6.53265 26.8958C6.41463 26.9153 6.21792 27.0421 6.09006 27.1787L5.854 27.4324V30.535V33.6377L6.09006 33.8913L6.32611 34.145H9.5128H12.6995L12.9355 33.9011C13.1716 33.6767 13.1814 33.6182 13.1814 32.3986C13.1814 31.1985 13.1716 31.1204 12.965 30.9838C12.6601 30.7692 12.4339 30.7887 12.1979 31.0424C12.0307 31.218 12.0012 31.3839 12.0012 32.1156V32.9742H9.49313H6.98508L7.00475 30.5058L7.03426 28.0471L8.4309 28.0178C9.80786 27.9983 9.83737 27.9885 9.99473 27.7446C10.2013 27.4421 10.0636 27.0616 9.68 26.925C9.44395 26.8275 6.96541 26.808 6.53265 26.8958Z" fill="#FA7436"/>
<path d="M18.856 27.4914C18.6495 27.7158 18.6396 27.9987 18.8265 28.2524C18.9642 28.428 19.1412 28.4378 22.7902 28.467C24.8852 28.4768 26.7047 28.467 26.8227 28.4378C27.3243 28.3207 27.5112 27.7841 27.167 27.4816C26.9998 27.3353 26.567 27.3157 22.9967 27.3157C19.2593 27.3157 19.0035 27.3255 18.856 27.4914Z" fill="#FA7436"/>
<path d="M37.0223 27.5595C36.8354 27.8424 36.9141 28.1449 37.2289 28.3497C37.4157 28.4766 37.8583 28.4863 40.032 28.4668C42.4515 28.4376 42.6187 28.4278 42.7466 28.2522C42.9334 27.9887 42.9236 27.6668 42.7072 27.4814C42.5498 27.335 42.2056 27.3155 39.8549 27.3155H37.1797L37.0223 27.5595Z" fill="#FA7436"/>
<path d="M19.0824 32.1651C18.689 32.3017 18.5612 32.8383 18.8661 33.1017C19.0136 33.2383 19.2792 33.2676 20.3217 33.2676C21.7282 33.2676 21.8364 33.2286 21.8364 32.7212C21.8364 32.1943 21.5807 32.0968 20.3119 32.1065C19.7218 32.1065 19.1611 32.1358 19.0824 32.1651Z" fill="#FA7436"/>
</svg>
