<svg width="47" height="48" viewBox="0 0 47 48" fill="none" xmlns="http://www.w3.org/2000/svg">
<path d="M25.6963 0.0960617C25.5085 0.161797 25.2173 0.321445 25.0577 0.443531C24.9074 0.565613 22.0432 4.67891 18.6999 9.59045L12.6239 18.512L10.9053 18.5402L9.18676 18.5589L9.23371 18.2584C9.26189 18.0894 9.44032 16.4084 9.61875 14.5208C9.79718 12.6332 9.96622 10.9146 9.99439 10.6986C10.0507 10.3136 10.0789 10.2854 10.7175 9.94731C11.3561 9.60923 12.2576 8.83916 12.6333 8.29448L12.8211 8.02214L15.5351 8.30387C17.3758 8.4823 18.3431 8.54804 18.5121 8.49169C19.038 8.31326 19.0756 7.50563 18.5685 7.28963C18.4464 7.23329 17.1128 7.07364 15.5915 6.92338C12.53 6.63226 12.2952 6.64165 11.8444 7.13938C11.6942 7.29902 11.3561 7.66528 11.0838 7.9564C10.802 8.26631 10.3982 8.5856 10.0695 8.74525C9.23371 9.14907 8.94259 9.40263 8.79233 9.84401C8.69842 10.0882 8.48243 11.9288 8.23826 14.3987L7.83444 18.5589H7.39306H6.94229L6.98924 18.2021C7.01742 18.0143 7.31793 15.0748 7.64662 11.6753C7.9847 8.26631 8.304 5.41142 8.35095 5.30811C8.49182 5.04516 8.75477 4.94186 9.26189 4.94186C9.50606 4.94186 12.0135 5.17664 14.8214 5.45837C19.3479 5.90914 19.9677 5.94671 20.1931 5.83401C20.6439 5.59924 20.6251 4.85734 20.1649 4.66013C20.0429 4.61317 18.39 4.42535 16.4742 4.23753C14.5679 4.04971 12.1262 3.81493 11.0462 3.70224C9.95683 3.59893 8.91442 3.54259 8.68903 3.57076C7.83444 3.70224 7.10194 4.43474 6.9329 5.34568C6.87655 5.61802 6.6136 8.09727 6.34126 10.8582L5.85292 15.8825L4.66964 15.9388C3.65541 15.9764 3.42063 16.0233 3.0356 16.2206C2.23735 16.6338 1.78658 17.4132 1.77719 18.4181C1.7678 18.8688 1.74902 18.897 1.32642 19.1694C1.09164 19.3196 0.753561 19.6295 0.584521 19.8549C-0.0446817 20.6813 -0.0165084 19.9582 0.0116648 33.5002L0.0398381 45.7461L0.265224 46.2345C0.537566 46.8543 1.30764 47.5774 1.91806 47.8216C2.37822 48 2.86656 48 22.2028 48H42.018L42.5063 47.7746C43.0886 47.5117 43.7835 46.8073 44.0653 46.1875C44.2625 45.7649 44.2719 45.6147 44.3 42.1494L44.3282 38.562H44.6757C45.4833 38.562 46.197 38.1581 46.4412 37.5571C46.5445 37.3129 46.5727 36.4302 46.5727 33.3029C46.5727 29.5559 46.5633 29.3305 46.3849 28.983C46.1031 28.429 45.7087 28.1942 44.9574 28.1566L44.3188 28.1191V24.7195C44.3188 21.8646 44.2906 21.2354 44.1686 20.8128C43.9995 20.2493 43.6051 19.6107 43.2388 19.329C43.0229 19.16 43.0041 19.0754 43.0041 18.4462C43.0041 17.6104 42.7223 16.9437 42.1777 16.4929C41.7832 16.1736 41.0883 15.9294 40.5436 15.9294H40.1774L41.2761 14.3236C41.8865 13.4314 42.4312 12.5205 42.5063 12.2763C42.7317 11.525 42.4876 10.6329 41.9053 10.0976C41.7644 9.96609 40.5248 9.09272 39.1537 8.16301C37.7826 7.23329 34.6366 5.08273 32.1574 3.39233C29.6781 1.70193 27.5276 0.255707 27.3773 0.18058C26.9923 -0.0166321 26.1283 -0.0635872 25.6963 0.0960617ZM26.8608 1.47655C27.4336 1.77707 40.7408 10.9146 40.9662 11.1494C41.3794 11.5908 41.3137 11.8161 40.4027 13.1685C39.9426 13.8352 38.9471 15.319 38.1677 16.4647L36.759 18.5495L36.2143 18.5589H35.679L36.7778 16.9531C37.3788 16.0609 37.9235 15.1781 37.9986 14.9715C38.1395 14.5489 38.0831 14.2296 37.6887 13.2999C37.4727 12.7834 37.4258 12.5393 37.407 11.6753C37.3882 10.8395 37.3412 10.6047 37.1816 10.3511C37.0501 10.1257 35.8856 9.28054 33.181 7.43989C31.0868 6.01244 29.2743 4.80099 29.1428 4.75404C28.7296 4.59439 28.2976 4.65074 27.5369 4.96064C26.8984 5.22359 26.6824 5.26116 25.7996 5.27994C24.6163 5.30811 24.2782 5.4302 23.8744 6.00306C23.7148 6.21905 21.7614 9.08333 19.5263 12.3608C17.2913 15.6383 15.4131 18.3805 15.3567 18.4462C15.2816 18.5214 15.0656 18.5589 14.7557 18.5402L14.2861 18.512L20.0053 10.107C23.1513 5.48655 25.8184 1.62681 25.9217 1.5329C26.1471 1.35447 26.5791 1.32629 26.8608 1.47655ZM32.4391 8.5856L36.0077 11.0179L36.0641 12.0415C36.111 12.8398 36.1768 13.206 36.374 13.7225C36.5148 14.0794 36.6369 14.4456 36.6463 14.5208C36.6557 14.6053 36.0734 15.5444 35.3503 16.615L34.0356 18.5495L32.8617 18.5589H31.6784L31.5751 17.9297C31.4249 17.0658 30.8144 15.8825 30.1758 15.1875C29.4997 14.455 28.7766 13.9855 27.8093 13.6474C25.8466 12.9712 23.4988 13.5253 22.0526 15.0091C21.2449 15.8355 20.6345 17.0094 20.4842 18.0236L20.4185 18.512L18.6999 18.5402C17.3194 18.5589 16.9908 18.5402 17.0471 18.4462C17.0941 18.3805 18.9159 15.6947 21.1041 12.4735L25.0859 6.63226H25.9686C26.6448 6.63226 27.011 6.57591 27.5745 6.39748C27.9783 6.26601 28.3728 6.12514 28.4385 6.07818C28.523 6.02184 28.6451 6.02184 28.7202 6.06879C28.8047 6.11575 30.4764 7.24268 32.4391 8.5856ZM27.0862 14.8495C27.8469 15.0561 28.4761 15.4129 29.0489 15.9858C29.6406 16.5774 29.9974 17.2066 30.1758 17.9767L30.3073 18.5589H26.0438H21.7708L21.8366 18.2021C22.2685 15.8261 24.7384 14.239 27.0862 14.8495ZM5.68388 17.6292C5.65571 17.7889 5.62754 18.0706 5.62754 18.2396V18.5589H4.40669H3.18585V18.2209C3.18585 17.9767 3.26098 17.817 3.45819 17.6104C3.73054 17.3475 3.75871 17.3381 4.73538 17.3381H5.74962L5.68388 17.6292ZM41.2479 17.5353C41.5203 17.7419 41.7738 18.4275 41.633 18.5402C41.586 18.5777 40.8441 18.5965 39.9801 18.5777L38.4118 18.5495L38.8063 17.9485L39.2007 17.3381H40.1022C40.8723 17.3381 41.0413 17.3663 41.2479 17.5353ZM42.2246 20.3057C42.8162 20.7752 42.9102 21.0664 42.9102 22.3811V23.5362H22.1559H1.40155V22.3623C1.40155 21.5265 1.43911 21.1039 1.53302 20.9255C1.70206 20.5968 2.13405 20.193 2.43457 20.0709C2.58482 20.0146 9.39336 19.9864 22.2685 19.9958L41.8584 20.0146L42.2246 20.3057ZM42.9102 26.5414V28.1378H39.3697C36.5336 28.1378 35.6978 28.166 35.2189 28.2787C33.5754 28.6731 32.1668 29.9315 31.5469 31.5656C31.284 32.2699 31.1901 33.7068 31.3591 34.4393C31.7817 36.2611 33.1716 37.7449 35.0216 38.3366C35.463 38.4774 36.0453 38.5056 39.2289 38.5432L42.9102 38.5807V40.1678V41.7549H26.025C9.21493 41.7549 9.13041 41.7549 8.96137 41.9427C8.74538 42.1869 8.74538 42.6377 8.96137 42.8819C9.13041 43.0697 9.21493 43.0697 26.025 43.0697H42.9102V44.2623C42.9102 45.3329 42.882 45.502 42.6942 45.84C42.5721 46.0467 42.3185 46.3002 42.1119 46.4223L41.7363 46.6383H22.1746C0.377918 46.6383 2.23735 46.6946 1.70206 45.9997C1.45789 45.6804 1.4485 45.6147 1.42033 44.3656L1.38276 43.0697H3.36428C5.22372 43.0697 5.35519 43.0603 5.53363 42.8819C5.63693 42.7786 5.72145 42.572 5.72145 42.4123C5.72145 42.2527 5.63693 42.0461 5.53363 41.9427C5.35519 41.7643 5.22372 41.7549 3.37367 41.7549H1.40155V33.3499V24.9449H22.1559H42.9102V26.5414ZM45.1452 33.3217L45.164 37.1533H40.5906C37.9047 37.1533 35.8387 37.1063 35.6039 37.0594C34.1295 36.7119 32.9462 35.4629 32.6645 33.9509C32.2888 31.8943 33.8102 29.8282 35.895 29.5559C36.2143 29.5089 38.4212 29.4808 40.7972 29.4902L45.1171 29.4996L45.1452 33.3217Z" fill="#4086F4"/>
<path d="M35.7731 30.6641C34.5898 31.0303 33.7071 32.3357 33.8292 33.5377C33.9794 35.0309 35.1063 36.0639 36.562 36.0639C38.9849 36.0733 40.2151 33.3217 38.6374 31.4435C38.5059 31.2839 38.1397 31.0209 37.8204 30.8707C37.3414 30.6265 37.1348 30.5795 36.6277 30.5889C36.2896 30.5889 35.9046 30.6265 35.7731 30.6641ZM37.1254 32.0258C38.1115 32.439 38.2618 33.8195 37.3884 34.4675C37.0315 34.7398 36.2708 34.768 35.8858 34.5332C34.9373 33.9322 34.9937 32.5235 35.9985 32.0727C36.4587 31.8661 36.7122 31.8567 37.1254 32.0258Z" fill="#4086F4"/>
</svg>
