<svg width="42" height="48" viewBox="0 0 42 48" fill="none" xmlns="http://www.w3.org/2000/svg">
<path d="M18.4403 0.103802C12.377 0.713886 6.79244 4.10219 3.32905 9.2832C1.6959 11.7329 0.466352 15.1212 0.0909168 18.1998C-0.0498716 19.373 -0.0217139 21.5881 0.137846 22.5361C1.15152 28.3084 6.86753 36.4554 16.0469 45.203C17.9335 46.9957 18.3559 47.3524 18.9472 47.6527C19.6136 47.9812 19.698 48 20.5522 48C21.4063 48 21.4907 47.9812 22.1571 47.6527C22.7485 47.3524 23.1708 46.9957 25.0574 45.203C31.0174 39.5245 35.8136 33.7334 38.4604 28.9936C39.7651 26.6471 40.5441 24.6667 40.9289 22.6956C41.1354 21.635 41.173 19.5232 41.0134 18.1998C40.6661 15.3183 39.5961 12.2304 38.1319 9.84636C36.9962 8.00672 35.1284 5.8949 33.4484 4.53394C29.2623 1.17379 23.8184 -0.440578 18.4403 0.103802ZM23.5556 1.6337C28.5208 2.45966 32.9509 5.14402 35.9169 9.13303C37.8973 11.7892 39.0799 14.6707 39.568 18.0121C39.7932 19.6171 39.7182 21.9635 39.3803 23.2212C37.9161 28.7777 32.6787 35.9391 23.9405 44.3207C22.7766 45.4283 21.838 46.2542 21.594 46.3762C21.0308 46.6484 20.402 46.6954 19.8201 46.4983C19.2569 46.3199 17.9992 45.1936 15.2116 42.406C9.2797 36.4835 5.39395 31.4902 3.18826 26.9756C1.81792 24.188 1.40494 22.6299 1.40494 20.3116C1.40494 11.7517 7.45884 4.10219 15.9155 1.97159C16.6289 1.79326 18.1306 1.53046 18.9096 1.45537C19.698 1.38028 22.7015 1.49291 23.5556 1.6337Z" fill="#FFB60A"/>
<path d="M18.9565 5.25629C15.4556 5.65988 12.4427 7.05838 9.90852 9.47055C7.62775 11.6481 6.11662 14.3606 5.42207 17.5706C5.24373 18.3965 5.21558 18.8095 5.21558 20.5928C5.21558 22.3761 5.24373 22.7891 5.42207 23.6057C5.88197 25.7081 6.79241 27.82 7.94687 29.4625C8.8573 30.7484 10.6031 32.4566 11.8608 33.3013C15.3242 35.6103 19.0504 36.4362 23.1332 35.7886C23.6495 35.7041 24.2032 35.5821 24.3722 35.5164C24.8602 35.3099 24.9259 34.6529 24.4848 34.3244C24.2502 34.1461 24.2314 34.1461 23.1708 34.3525C21.7723 34.6341 19.454 34.6529 18.1118 34.3995C15.2303 33.8457 12.7149 32.5223 10.65 30.448C9.3266 29.134 7.83424 26.9471 8.1252 26.7594C8.18152 26.7218 9.28905 25.8114 10.5749 24.7414C12.1048 23.4743 12.9495 22.714 12.9871 22.5639C13.1185 22.057 12.5366 21.5314 12.0767 21.7473C11.964 21.7942 10.8753 22.6671 9.66449 23.6714L7.4588 25.5016L7.3274 25.2107C7.12091 24.7226 6.77363 23.249 6.65162 22.3574C6.48267 21.0903 6.5953 18.7626 6.87688 17.5424C8.06889 12.521 11.6825 8.64459 16.5443 7.1804C17.9804 6.74865 18.8908 6.61724 20.5521 6.61724C22.373 6.61724 23.3679 6.7768 24.9729 7.3118C26.8688 7.94065 28.5583 8.92617 29.9568 10.212C30.8015 11.0005 31.1206 11.1131 31.4773 10.7564C31.9184 10.3153 31.8246 10.0525 30.9423 9.21713C27.8543 6.29812 23.2271 4.76822 18.9565 5.25629Z" fill="#FFB60A"/>
<path d="M23.931 11.6953C23.3209 11.9206 22.5044 12.7559 22.2885 13.4035C21.913 14.5392 22.2979 15.8157 23.2271 16.529C24.6537 17.6178 26.6341 17.1485 27.4789 15.5248C27.8355 14.8302 27.8355 13.8541 27.4695 13.1126C27.1504 12.465 26.5215 11.883 25.9302 11.6859C25.3858 11.4982 24.4848 11.5076 23.931 11.6953ZM25.6205 13.0844C26.4746 13.5256 26.5966 14.7176 25.8551 15.3652C25.245 15.9096 24.2783 15.7969 23.7996 15.1305C23.5274 14.7551 23.4993 14.0042 23.7339 13.6194C24.1281 13 24.9822 12.7559 25.6205 13.0844Z" fill="#FFB60A"/>
<path d="M32.3877 12.155C32.1436 12.4647 32.1436 12.6242 32.3783 13.0372C32.8664 13.8913 33.5046 15.2148 33.7392 15.853C34.2649 17.3266 34.4526 18.3872 34.5089 20.2831C34.537 21.2593 34.537 22.0477 34.4995 22.0477C34.462 22.0477 33.5797 21.3625 32.5378 20.5272C31.496 19.6824 30.4917 18.9222 30.3134 18.8377C29.9004 18.6218 29.3373 18.6312 28.8586 18.8471C28.6521 18.9503 27.6853 19.6824 26.7186 20.499C25.4984 21.5033 24.9165 21.935 24.8414 21.8787C24.7757 21.8318 23.4523 20.7806 21.9036 19.5323C20.3456 18.2933 18.9752 17.2515 18.8626 17.2139C18.4309 17.0732 17.7457 17.1389 17.3984 17.3453C16.7226 17.7489 14.0007 20.0766 13.9444 20.3113C13.813 20.8181 14.3949 21.3437 14.8548 21.1372C14.9675 21.0809 15.7183 20.4896 16.5161 19.8232C17.3139 19.1568 18.0367 18.5843 18.1211 18.5561C18.2056 18.5186 18.3745 18.5655 18.5059 18.65C19.0503 19.016 31.6274 29.1153 31.6274 29.1903C31.6274 29.2279 31.1769 29.7253 30.6231 30.2885C29.5062 31.4242 28.6145 32.1187 27.4038 32.8039C26.9626 33.0479 26.5309 33.3107 26.4464 33.3858C26.2118 33.5829 26.2305 34.1085 26.4652 34.3432C26.728 34.606 27.0377 34.5778 27.7135 34.2399C31.0737 32.5505 33.9457 29.1622 35.1847 25.4454C35.776 23.6714 35.8886 22.8736 35.8886 20.5929C35.8886 18.3215 35.776 17.5237 35.1847 15.7404C34.8374 14.6704 33.8988 12.7369 33.5046 12.2582C33.1292 11.8171 32.688 11.7701 32.3877 12.155ZM31.9653 21.86C33.8237 23.3429 34.1992 23.6808 34.1804 23.8592C34.0677 24.6288 32.9978 27.2005 32.5472 27.8012C32.4346 27.9514 32.1436 27.7355 29.2528 25.4172C27.507 24.0187 26.0991 22.8549 26.1273 22.8267C26.5403 22.4043 29.4593 20.0766 29.5719 20.0766C29.6564 20.0766 30.7264 20.8838 31.9653 21.86Z" fill="#FFB60A"/>
</svg>
