<svg width="180" height="131" viewBox="0 0 180 131" fill="none" xmlns="http://www.w3.org/2000/svg">
<path d="M67.2399 54.9713C67.2836 54.9366 67.3189 54.8926 67.3431 54.8423C67.3673 54.7921 67.3799 54.7371 67.3799 54.6813L66.9899 47.6813L70.3599 45.6213C70.6129 45.4684 70.8331 45.267 71.0079 45.0287C71.1827 44.7903 71.3085 44.5197 71.3783 44.2325C71.448 43.9452 71.4601 43.647 71.4141 43.3551C71.368 43.0631 71.2646 42.7831 71.1099 42.5313L69.8399 40.4413C69.5274 39.9318 69.0258 39.5667 68.4448 39.4262C67.8638 39.2856 67.2508 39.381 66.7399 39.6913L66.5599 39.8013L65.7699 25.4213L81.7699 17.1713C82.6074 16.6614 83.3356 15.9906 83.9123 15.1976C84.489 14.4046 84.9029 13.5052 85.1299 12.5513L85.1899 12.2813L87.3499 8.85132C87.7078 8.27486 87.8975 7.60983 87.8975 6.9313C87.8975 6.25278 87.7078 5.58775 87.3499 5.01129C86.996 4.42912 86.4863 3.95762 85.8784 3.65012C85.2704 3.34261 84.5886 3.21139 83.9099 3.2713L79.9099 3.62131C78.9187 3.33863 77.8795 3.26556 76.8585 3.40674C75.8375 3.54792 74.8572 3.90027 73.9799 4.44131L59.2399 14.8513L46.8199 7.57129L46.9999 7.4613C47.5095 7.14881 47.8745 6.64715 48.015 6.06616C48.1556 5.48517 48.0603 4.87216 47.7499 4.3613L46.4799 2.2713C46.1656 1.76379 45.664 1.4005 45.0838 1.26013C44.5036 1.11976 43.8914 1.21359 43.3799 1.5213L40.0099 3.5813L34.0099 0.0413184C33.9591 0.014182 33.9025 -2.3602e-06 33.8449 -2.36271e-06C33.7873 -2.36523e-06 33.7307 0.014182 33.6799 0.0413184L27.9599 2.9913C27.9056 3.02136 27.8598 3.06461 27.8266 3.11703C27.7934 3.16946 27.7739 3.22936 27.7699 3.29129C27.7551 3.35037 27.7551 3.41223 27.7699 3.47131C27.8029 3.52123 27.8475 3.56241 27.8999 3.59131L30.8399 5.23129L32.9499 7.88131L31.4299 8.81131C31.3917 8.83482 31.3585 8.86566 31.3322 8.90207C31.306 8.93847 31.2872 8.97971 31.277 9.0234C31.2668 9.0671 31.2653 9.11238 31.2727 9.15664C31.28 9.20091 31.2961 9.24328 31.3199 9.28131L31.4899 9.56131L30.1699 10.3713C29.9479 10.5098 29.789 10.7297 29.7274 10.9839C29.6657 11.2382 29.7061 11.5065 29.8399 11.7313L31.7299 14.8313C31.8684 15.0533 32.0883 15.2121 32.3426 15.2738C32.5968 15.3355 32.8651 15.2951 33.0899 15.1613L34.4099 14.3513L34.5799 14.6313C34.6276 14.7082 34.7031 14.7635 34.7907 14.7859C34.8784 14.8083 34.9712 14.7959 35.0499 14.7513L37.2999 13.3713L45.9699 24.2813L33.0699 33.4613L24.6199 29.9413L20.9999 31.8013L26.6699 38.1113L24.3499 40.8013L26.7199 44.6913L30.1099 43.7613L33.1099 51.6713L36.4199 49.3113L37.1599 40.1813L51.5099 32.7613L56.9599 45.6113L54.6999 46.9913C54.6237 47.0371 54.5686 47.1109 54.5461 47.1968C54.5237 47.2828 54.5358 47.3741 54.5799 47.4513L54.7599 47.7413L53.4299 48.5513C53.2123 48.6912 53.0574 48.91 52.9977 49.1618C52.938 49.4135 52.9782 49.6786 53.1099 49.9013L54.9999 53.0013C55.1382 53.2206 55.3564 53.3776 55.6082 53.4391C55.8601 53.5007 56.126 53.462 56.3499 53.3313L57.6799 52.5313L57.8499 52.8113C57.8734 52.8495 57.9043 52.8827 57.9407 52.9089C57.9771 52.9352 58.0183 52.9539 58.062 52.9642C58.1057 52.9744 58.151 52.9759 58.1952 52.9685C58.2395 52.9612 58.2819 52.9451 58.3199 52.9213L59.8399 52.0013L61.2299 55.0813L61.3399 58.4513C61.3459 58.5106 61.3628 58.5682 61.3899 58.6213C61.4265 58.6744 61.4743 58.7188 61.5299 58.7513C61.5834 58.7811 61.6436 58.7967 61.7049 58.7967C61.7661 58.7967 61.8264 58.7811 61.8799 58.7513L67.2399 54.9713ZM40.7499 3.97131L43.7499 2.1113C44.1068 1.89306 44.5356 1.82525 44.9424 1.92273C45.3492 2.02021 45.7007 2.27504 45.9199 2.63132L47.1999 4.72131C47.4146 5.08005 47.4794 5.5089 47.3802 5.91504C47.281 6.32118 47.0258 6.67191 46.6699 6.89129L46.1799 7.19131L43.4399 5.5813L40.7499 3.97131ZM32.8199 14.5813C32.7506 14.6225 32.668 14.6351 32.5896 14.6164C32.5112 14.5978 32.4432 14.5493 32.3999 14.4813L30.5099 11.3713C30.4882 11.3374 30.4735 11.2994 30.4668 11.2597C30.46 11.2199 30.4614 11.1793 30.4707 11.1401C30.48 11.1009 30.4972 11.064 30.5211 11.0315C30.545 10.9991 30.5752 10.9718 30.6099 10.9513L31.9299 10.1413L34.1499 13.7713L32.8199 14.5813ZM35.0799 13.9913L32.1599 9.2113L33.4599 8.42129L36.9699 12.8413L35.0799 13.9913ZM37.7399 12.7213L33.8099 7.72131L31.4299 4.72131C31.4015 4.68625 31.3677 4.65588 31.3299 4.63131L28.8799 3.2713L33.8799 0.691282L42.8799 5.95129L46.0899 7.84131L58.7299 15.2513L46.5899 23.8113L37.7399 12.7213ZM67.0899 40.2913C67.4468 40.0731 67.8756 40.0053 68.2824 40.1028C68.6892 40.2002 69.0407 40.455 69.2599 40.8113L70.5299 42.9013C70.7481 43.2582 70.816 43.687 70.7185 44.0938C70.621 44.5006 70.3662 44.8521 70.0099 45.0713L66.9499 46.9313L66.7799 43.7613L66.5999 40.5813L67.0899 40.2913ZM83.9799 3.95129C84.5334 3.89675 85.0909 4.00143 85.587 4.25299C86.083 4.50455 86.4969 4.89253 86.7799 5.37131C87.0758 5.83966 87.2329 6.38231 87.2329 6.93631C87.2329 7.49031 87.0758 8.03296 86.7799 8.50131L85.3499 10.7813L85.3499 10.6813C85.3498 10.4202 85.3297 10.1594 85.2899 9.90131C85.2996 9.82495 85.2996 9.74765 85.2899 9.6713C85.2501 9.37747 85.19 9.08677 85.1099 8.8013L85.1099 8.72131C85.0299 8.45671 84.9365 8.19637 84.8299 7.94131L84.7299 7.73129C84.6099 7.45136 84.4696 7.18063 84.3099 6.9213C84.1499 6.66129 83.9699 6.41129 83.7899 6.17129L83.6399 5.9913C83.4603 5.77845 83.2701 5.57486 83.0699 5.38132L83.0199 5.3313C82.798 5.13077 82.5642 4.94377 82.3199 4.7713L82.1399 4.6413C81.9214 4.49154 81.6943 4.35464 81.4599 4.23129C81.4356 4.21109 81.4087 4.19428 81.3799 4.1813L83.9799 3.95129ZM79.7599 4.29129C81.3901 4.76676 82.7822 5.83755 83.6599 7.29129C84.5426 8.74368 84.8494 10.474 84.5199 12.1413L84.4599 12.4213C84.0396 14.17 82.9427 15.6805 81.4099 16.6213L65.2699 24.9613L51.6399 31.9613L30.5299 42.8813L29.6099 41.3713C32.1099 39.838 34.6099 38.3113 37.1099 36.7913C37.3276 36.6529 37.4833 36.4358 37.5447 36.1853C37.6061 35.9348 37.5683 35.6702 37.4392 35.4469C37.3101 35.2236 37.0998 35.0589 36.852 34.987C36.6043 34.9151 36.3384 34.9418 36.1099 35.0613L28.5999 39.6313L27.7099 38.1713L59.4699 15.5813L59.5799 15.5113L74.2399 5.00131C75.0531 4.50234 75.9622 4.18033 76.9082 4.05627C77.8541 3.93222 78.8156 4.0089 79.7299 4.28131L79.7599 4.29129ZM22.1799 32.0013L24.7399 30.6813L32.3999 33.8713L27.2999 37.6213L27.2999 37.5413L27.2499 37.6013L22.1799 32.0013ZM27.1199 43.9013L25.2699 40.9013L27.1599 38.7113L27.9699 40.0513C27.7405 40.1919 27.5763 40.4178 27.5135 40.6794C27.4507 40.941 27.4943 41.2169 27.6349 41.4463C27.7754 41.6757 28.0014 41.8399 28.263 41.9027C28.5246 41.9655 28.8005 41.9219 29.0299 41.7813L29.8799 43.1713L27.1199 43.9013ZM35.8799 48.9013L33.5399 50.5713L30.8499 43.5713L30.9299 43.5713L30.9299 43.5013L36.5899 40.6813L35.8799 48.9013ZM56.1099 52.7213C56.0394 52.7616 55.956 52.7727 55.8774 52.7521C55.7989 52.7315 55.7316 52.681 55.6899 52.6113L53.7899 49.5113C53.7684 49.476 53.7541 49.4367 53.748 49.3958C53.7419 49.3549 53.744 49.3132 53.7543 49.2731C53.7645 49.2331 53.7827 49.1954 53.8077 49.1625C53.8327 49.1295 53.8641 49.1019 53.8999 49.0813L55.2199 48.2813L57.4399 51.9113L56.1099 52.7213ZM58.3599 52.1313L55.4499 47.3513L57.3399 46.1913L57.5599 46.6713L59.6699 51.3413L58.3599 52.1313ZM62.0199 54.9513L62.0199 54.8313L60.4499 51.3313L57.8399 45.5713L52.2399 32.4613L63.7599 26.4613L65.1199 25.7513L65.9299 40.3913L66.1399 44.0513L66.7099 54.5113L62.1299 57.7713L62.0199 54.9513Z" fill="#999999"/>
<path d="M159.24 95.9713C159.284 95.9366 159.319 95.8926 159.343 95.8423C159.367 95.7921 159.38 95.7371 159.38 95.6813L158.99 88.6813L162.36 86.6213C162.613 86.4684 162.833 86.267 163.008 86.0287C163.183 85.7903 163.308 85.5197 163.378 85.2325C163.448 84.9452 163.46 84.647 163.414 84.3551C163.368 84.0631 163.265 83.7831 163.11 83.5313L161.84 81.4413C161.527 80.9318 161.026 80.5667 160.445 80.4262C159.864 80.2856 159.251 80.381 158.74 80.6913L158.56 80.8013L157.77 66.4213L173.77 58.1713C174.607 57.6614 175.336 56.9906 175.912 56.1976C176.489 55.4046 176.903 54.5052 177.13 53.5513L177.19 53.2813L179.35 49.8513C179.708 49.2749 179.897 48.6098 179.897 47.9313C179.897 47.2528 179.708 46.5877 179.35 46.0113C178.996 45.4291 178.486 44.9576 177.878 44.6501C177.27 44.3426 176.588 44.2114 175.91 44.2713L171.91 44.6213C170.919 44.3386 169.879 44.2656 168.858 44.4067C167.837 44.5479 166.857 44.9003 165.98 45.4413L151.24 55.8513L138.82 48.5713L139 48.4613C139.509 48.1488 139.874 47.6472 140.015 47.0662C140.156 46.4852 140.06 45.8722 139.75 45.3613L138.48 43.2713C138.166 42.7638 137.664 42.4005 137.084 42.2601C136.504 42.1198 135.891 42.2136 135.38 42.5213L132.01 44.5813L126.01 41.0413C125.959 41.0142 125.902 41 125.845 41C125.787 41 125.731 41.0142 125.68 41.0413L119.96 43.9913C119.906 44.0214 119.86 44.0646 119.827 44.117C119.793 44.1695 119.774 44.2294 119.77 44.2913C119.755 44.3504 119.755 44.4122 119.77 44.4713C119.803 44.5212 119.847 44.5624 119.9 44.5913L122.84 46.2313L124.95 48.8813L123.43 49.8113C123.392 49.8348 123.358 49.8657 123.332 49.9021C123.306 49.9385 123.287 49.9797 123.277 50.0234C123.267 50.0671 123.265 50.1124 123.273 50.1566C123.28 50.2009 123.296 50.2433 123.32 50.2813L123.49 50.5613L122.17 51.3713C121.948 51.5098 121.789 51.7297 121.727 51.9839C121.666 52.2382 121.706 52.5065 121.84 52.7313L123.73 55.8313C123.868 56.0533 124.088 56.2121 124.342 56.2738C124.597 56.3355 124.865 56.2951 125.09 56.1613L126.41 55.3513L126.58 55.6313C126.628 55.7082 126.703 55.7635 126.791 55.7859C126.878 55.8083 126.971 55.7959 127.05 55.7513L129.3 54.3713L137.97 65.2813L125.07 74.4613L116.62 70.9413L113 72.8013L118.67 79.1113L116.35 81.8013L118.72 85.6913L122.11 84.7613L125.11 92.6713L128.42 90.3113L129.16 81.1813L143.51 73.7613L148.96 86.6113L146.7 87.9913C146.624 88.0371 146.569 88.1109 146.546 88.1968C146.524 88.2828 146.536 88.3741 146.58 88.4513L146.76 88.7413L145.43 89.5513C145.212 89.6912 145.057 89.91 144.998 90.1618C144.938 90.4135 144.978 90.6786 145.11 90.9013L147 94.0013C147.138 94.2206 147.356 94.3776 147.608 94.4391C147.86 94.5007 148.126 94.462 148.35 94.3313L149.68 93.5313L149.85 93.8113C149.873 93.8495 149.904 93.8827 149.941 93.9089C149.977 93.9352 150.018 93.9539 150.062 93.9642C150.106 93.9744 150.151 93.9759 150.195 93.9685C150.239 93.9612 150.282 93.9451 150.32 93.9213L151.84 93.0013L153.23 96.0813L153.34 99.4513C153.346 99.5106 153.363 99.5682 153.39 99.6213C153.426 99.6744 153.474 99.7188 153.53 99.7513C153.583 99.7811 153.644 99.7967 153.705 99.7967C153.766 99.7967 153.826 99.7811 153.88 99.7513L159.24 95.9713ZM132.75 44.9713L135.75 43.1113C136.107 42.8931 136.536 42.8252 136.942 42.9227C137.349 43.0202 137.701 43.275 137.92 43.6313L139.2 45.7213C139.415 46.0801 139.479 46.5089 139.38 46.915C139.281 47.3212 139.026 47.6719 138.67 47.8913L138.18 48.1913L135.44 46.5813L132.75 44.9713ZM124.82 55.5813C124.751 55.6225 124.668 55.6351 124.59 55.6164C124.511 55.5978 124.443 55.5493 124.4 55.4813L122.51 52.3713C122.488 52.3374 122.473 52.2994 122.467 52.2597C122.46 52.2199 122.461 52.1793 122.471 52.1401C122.48 52.1009 122.497 52.064 122.521 52.0315C122.545 51.9991 122.575 51.9718 122.61 51.9513L123.93 51.1413L126.15 54.7713L124.82 55.5813ZM127.08 54.9913L124.16 50.2113L125.46 49.4213L128.97 53.8413L127.08 54.9913ZM129.74 53.7213L125.81 48.7213L123.43 45.7213C123.401 45.6863 123.368 45.6559 123.33 45.6313L120.88 44.2713L125.88 41.6913L134.88 46.9513L138.09 48.8413L150.73 56.2513L138.59 64.8113L129.74 53.7213ZM159.09 81.2913C159.447 81.0731 159.876 81.0053 160.282 81.1028C160.689 81.2002 161.041 81.455 161.26 81.8113L162.53 83.9013C162.748 84.2582 162.816 84.687 162.718 85.0938C162.621 85.5006 162.366 85.8521 162.01 86.0713L158.95 87.9313L158.78 84.7613L158.6 81.5813L159.09 81.2913ZM175.98 44.9513C176.533 44.8968 177.091 45.0014 177.587 45.253C178.083 45.5045 178.497 45.8925 178.78 46.3713C179.076 46.8397 179.233 47.3823 179.233 47.9363C179.233 48.4903 179.076 49.033 178.78 49.5013L177.35 51.7813L177.35 51.6813C177.35 51.4202 177.33 51.1594 177.29 50.9013C177.3 50.8249 177.3 50.7477 177.29 50.6713C177.25 50.3775 177.19 50.0868 177.11 49.8013L177.11 49.7213C177.03 49.4567 176.936 49.1964 176.83 48.9413L176.73 48.7313C176.61 48.4514 176.47 48.1806 176.31 47.9213C176.15 47.6613 175.97 47.4113 175.79 47.1713L175.64 46.9913C175.46 46.7784 175.27 46.5749 175.07 46.3813L175.02 46.3313C174.798 46.1308 174.564 45.9438 174.32 45.7713L174.14 45.6413C173.921 45.4915 173.694 45.3546 173.46 45.2313C173.436 45.2111 173.409 45.1943 173.38 45.1813L175.98 44.9513ZM171.76 45.2913C173.39 45.7668 174.782 46.8375 175.66 48.2913C176.543 49.7437 176.849 51.474 176.52 53.1413L176.46 53.4213C176.04 55.17 174.943 56.6805 173.41 57.6213L157.27 65.9613L143.64 72.9613L122.53 83.8813L121.61 82.3713C124.11 80.838 126.61 79.3113 129.11 77.7913C129.327 77.6529 129.483 77.4358 129.545 77.1853C129.606 76.9348 129.568 76.6702 129.439 76.4469C129.31 76.2236 129.1 76.0589 128.852 75.987C128.604 75.9151 128.338 75.9418 128.11 76.0613L120.6 80.6313L119.71 79.1713L151.47 56.5813L151.58 56.5113L166.24 46.0013C167.053 45.5023 167.962 45.1803 168.908 45.0563C169.854 44.9322 170.816 45.0089 171.73 45.2813L171.76 45.2913ZM114.18 73.0013L116.74 71.6813L124.4 74.8713L119.3 78.6213L119.3 78.5413L119.25 78.6013L114.18 73.0013ZM119.12 84.9013L117.27 81.9013L119.16 79.7113L119.97 81.0513C119.74 81.1919 119.576 81.4178 119.513 81.6794C119.451 81.941 119.494 82.2169 119.635 82.4463C119.775 82.6757 120.001 82.8399 120.263 82.9027C120.525 82.9655 120.8 82.9219 121.03 82.7813L121.88 84.1713L119.12 84.9013ZM127.88 89.9013L125.54 91.5713L122.85 84.5713L122.93 84.5713L122.93 84.5013L128.59 81.6813L127.88 89.9013ZM148.11 93.7213C148.039 93.7616 147.956 93.7727 147.877 93.7521C147.799 93.7315 147.732 93.681 147.69 93.6113L145.79 90.5113C145.768 90.476 145.754 90.4367 145.748 90.3958C145.742 90.3549 145.744 90.3132 145.754 90.2731C145.764 90.2331 145.783 90.1954 145.808 90.1625C145.833 90.1295 145.864 90.1019 145.9 90.0813L147.22 89.2813L149.44 92.9113L148.11 93.7213ZM150.36 93.1313L147.45 88.3513L149.34 87.1913L149.56 87.6713L151.67 92.3413L150.36 93.1313ZM154.02 95.9513L154.02 95.8313L152.45 92.3313L149.84 86.5713L144.24 73.4613L155.76 67.4613L157.12 66.7513L157.93 81.3913L158.14 85.0513L158.71 95.5113L154.13 98.7713L154.02 95.9513Z" fill="#999999"/>
<path d="M10.0145 91.2901L9.81 90.527C9.79888 90.4856 9.7962 90.4424 9.80211 90.3999C9.80802 90.3575 9.82241 90.3166 9.84442 90.2798C9.86643 90.243 9.89561 90.211 9.93023 90.1857C9.96484 90.1604 10.0042 90.1423 10.0459 90.1325C10.0873 90.1214 10.1306 90.1187 10.173 90.1247C10.2155 90.1306 10.2563 90.1449 10.2931 90.1669C10.3299 90.1889 10.362 90.2181 10.3873 90.2527C10.4126 90.2874 10.4306 90.3267 10.4404 90.3685C10.6087 90.9963 10.7743 91.6145 10.9374 92.223C10.9623 92.3053 10.9541 92.394 10.9146 92.4703C10.8751 92.5466 10.8074 92.6045 10.7259 92.6317C10.6421 92.6543 10.5528 92.644 10.4764 92.6029C10.3999 92.5618 10.3421 92.493 10.3147 92.4106L10.0145 91.2901ZM9.41742 88.6755C9.24918 88.0477 9.18721 87.3914 9.09625 86.7428C9.09011 86.7008 9.09238 86.658 9.10294 86.6169C9.11349 86.5758 9.13212 86.5372 9.15774 86.5034C9.18335 86.4695 9.21545 86.4411 9.25215 86.4198C9.28885 86.3985 9.32943 86.3847 9.37152 86.3792C9.41351 86.373 9.45631 86.3753 9.49742 86.3859C9.53853 86.3964 9.57713 86.4151 9.61097 86.4407C9.64481 86.4663 9.67322 86.4984 9.69454 86.5351C9.71586 86.5718 9.72966 86.6124 9.73515 86.6544C9.82351 87.2933 9.93121 87.9271 10.0556 88.5459C10.0704 88.6308 10.0515 88.7181 10.0028 88.7892C9.95418 88.8602 9.87967 88.9095 9.7952 88.9263C9.75392 88.9348 9.71138 88.9349 9.67003 88.9269C9.62868 88.9188 9.58933 88.9027 9.55423 88.8794C9.51914 88.8561 9.48899 88.8261 9.46551 88.7911C9.44203 88.7561 9.42568 88.7168 9.41742 88.6755ZM10.9212 94.2876C10.8996 94.2095 10.9076 94.1262 10.9435 94.0536C10.9794 93.9809 11.0407 93.9241 11.1159 93.8938C11.1975 93.8661 11.2866 93.8715 11.3643 93.9087C11.442 93.946 11.502 94.0121 11.5316 94.093C11.7119 94.5727 11.8967 95.0304 12.1085 95.512L12.2552 95.8661C12.2729 95.9049 12.2827 95.9469 12.284 95.9896C12.2853 96.0322 12.2781 96.0747 12.2627 96.1145C12.2473 96.1543 12.2241 96.1907 12.1945 96.2214C12.1648 96.2521 12.1294 96.2766 12.0901 96.2934C12.0125 96.326 11.9251 96.3268 11.8469 96.2954C11.7687 96.264 11.706 96.2031 11.6725 96.1258L11.5162 95.7742C11.3069 95.3023 11.1222 94.8445 10.9289 94.3166L10.9212 94.2876ZM8.82666 84.848L8.81371 84.7997C8.75691 84.1627 8.7046 83.5038 8.67419 82.8494C8.67137 82.7648 8.70118 82.6823 8.75745 82.6191C8.81373 82.5558 8.89215 82.5166 8.97652 82.5096C9.01972 82.5065 9.06311 82.5123 9.10402 82.5265C9.14494 82.5407 9.18254 82.5631 9.21455 82.5922C9.24657 82.6214 9.27233 82.6568 9.29028 82.6962C9.30822 82.7356 9.31797 82.7783 9.31894 82.8216C9.35643 83.4637 9.39391 84.1059 9.46038 84.7404C9.46784 84.8248 9.4415 84.9088 9.38711 84.9738C9.33272 85.0389 9.25472 85.0796 9.17028 85.0872C9.10022 85.0834 9.03335 85.0566 8.97999 85.0111C8.92663 84.9655 8.88973 84.9037 8.87496 84.8351L8.82666 84.848ZM12.4798 97.8247C12.4616 97.7532 12.4688 97.6777 12.4999 97.6109C12.531 97.5441 12.5843 97.4901 12.6507 97.458C12.6881 97.4374 12.7293 97.4247 12.7719 97.4208C12.8144 97.4169 12.8573 97.4218 12.8978 97.4353C12.9383 97.4487 12.9757 97.4704 13.0074 97.4989C13.0392 97.5274 13.0647 97.5622 13.0824 97.6011C13.3659 98.1567 13.6738 98.7264 14.0011 99.2909C14.0218 99.3275 14.0351 99.3679 14.0402 99.4096C14.0453 99.4513 14.0421 99.4937 14.0309 99.5342C14.0196 99.5747 14.0005 99.6126 13.9746 99.6457C13.9487 99.6788 13.9165 99.7065 13.8799 99.7272C13.8048 99.7696 13.7161 99.7809 13.6327 99.7587C13.5494 99.7366 13.478 99.6826 13.4339 99.6085C13.1067 99.044 12.7961 98.4646 12.5075 97.8897L12.4798 97.8247ZM8.62814 80.9775L8.60744 80.9003C8.61118 80.2574 8.61233 79.6049 8.64245 78.9446C8.646 78.86 8.68293 78.7802 8.74516 78.7228C8.8074 78.6653 8.88984 78.6349 8.97446 78.6382C9.01678 78.6386 9.05859 78.6476 9.09729 78.6648C9.13598 78.6819 9.17074 78.7068 9.19945 78.7379C9.22815 78.769 9.25018 78.8057 9.26418 78.8456C9.27818 78.8856 9.28385 78.928 9.28084 78.9702C9.26745 79.6157 9.25404 80.2611 9.25737 80.8917C9.25917 80.9341 9.25226 80.9765 9.23703 81.0161C9.2218 81.0557 9.19862 81.0918 9.16888 81.1221C9.13914 81.1524 9.1035 81.1763 9.06416 81.1922C9.02483 81.2082 8.98262 81.2159 8.94019 81.2149C8.87547 81.2062 8.81513 81.1774 8.76777 81.1325C8.72041 81.0875 8.68843 81.0288 8.67643 80.9646L8.62814 80.9775ZM14.4014 101.171C14.3844 101.104 14.3889 101.033 14.4144 100.969C14.4399 100.905 14.485 100.85 14.5433 100.812C14.615 100.767 14.7016 100.752 14.7842 100.771C14.8668 100.79 14.9387 100.84 14.9841 100.912C15.3255 101.452 15.6862 101.987 16.0637 102.507C16.1106 102.578 16.129 102.664 16.1151 102.749C16.1012 102.833 16.0562 102.909 15.9888 102.962C15.9169 103.011 15.8284 103.029 15.7427 103.014C15.657 102.998 15.581 102.949 15.5314 102.877C15.1539 102.357 14.788 101.803 14.4466 101.263L14.4014 101.171ZM8.76649 77.0892L8.73802 76.983C8.79265 76.3368 8.85692 75.6881 8.93345 75.0464C8.93808 75.0041 8.95109 74.9632 8.97174 74.926C8.99238 74.8888 9.02023 74.856 9.05367 74.8297C9.08711 74.8034 9.12546 74.784 9.16648 74.7727C9.20749 74.7614 9.25036 74.7584 9.29256 74.7639C9.33486 74.7685 9.3758 74.7815 9.413 74.8021C9.45021 74.8228 9.48292 74.8506 9.50923 74.884C9.53555 74.9175 9.55492 74.9558 9.56624 74.9969C9.57755 75.0379 9.58058 75.0807 9.57512 75.1229C9.49601 75.755 9.42914 76.394 9.38417 77.0376C9.37647 77.1219 9.33562 77.1998 9.2706 77.2541C9.20558 77.3084 9.1217 77.3347 9.03731 77.3272C8.98356 77.3118 8.93498 77.2822 8.89672 77.2414C8.85845 77.2006 8.83191 77.1502 8.81995 77.0956L8.76649 77.0892ZM16.6449 104.328C16.6296 104.268 16.6314 104.204 16.6501 104.144C16.6688 104.084 16.7036 104.031 16.7508 103.989C16.7858 103.948 16.8304 103.916 16.8808 103.896C16.9311 103.876 16.9855 103.869 17.0393 103.875C17.0931 103.881 17.1446 103.9 17.1892 103.931C17.2338 103.961 17.2702 104.003 17.2952 104.051C17.6868 104.546 18.0906 105.049 18.5112 105.536C18.5391 105.568 18.5603 105.605 18.5737 105.646C18.5871 105.686 18.5924 105.728 18.5893 105.771C18.5862 105.813 18.5747 105.854 18.5555 105.892C18.5364 105.93 18.5099 105.963 18.4776 105.991C18.4121 106.044 18.3284 106.071 18.2438 106.065C18.1592 106.058 18.0803 106.02 18.0234 105.957C17.6003 105.46 17.1842 104.95 16.7803 104.447L16.6449 104.328ZM9.23533 73.2366C9.21507 73.1977 9.20359 73.1548 9.20168 73.111C9.30977 72.4713 9.42753 71.8289 9.55754 71.1936C9.56519 71.1519 9.58104 71.1122 9.60417 71.0767C9.6273 71.0412 9.65724 71.0107 9.69227 70.9868C9.72729 70.963 9.76671 70.9464 9.80821 70.9379C9.84972 70.9294 9.8925 70.9292 9.93407 70.9374C10.0194 70.9546 10.0945 71.0049 10.143 71.0772C10.1915 71.1496 10.2094 71.2381 10.1928 71.3236C10.0602 71.9492 9.9399 72.5819 9.83887 73.2095C9.83309 73.2512 9.81914 73.2913 9.79783 73.3276C9.77651 73.3639 9.74825 73.3956 9.71465 73.421C9.68105 73.4463 9.64277 73.4648 9.60203 73.4753C9.56129 73.4859 9.51886 73.4883 9.47719 73.4824C9.42886 73.4606 9.38651 73.4274 9.35372 73.3857C9.32093 73.3441 9.29866 73.2951 9.28881 73.243L9.23533 73.2366ZM19.1806 107.262C19.1655 107.207 19.1651 107.15 19.1795 107.095C19.1939 107.04 19.2226 106.99 19.2627 106.95C19.2933 106.92 19.3296 106.897 19.3694 106.881C19.4092 106.865 19.4517 106.858 19.4945 106.859C19.5373 106.86 19.5794 106.87 19.6183 106.887C19.6573 106.905 19.6923 106.93 19.7213 106.962C20.1657 107.422 20.6198 107.881 21.1169 108.306C21.1768 108.368 21.2112 108.45 21.2131 108.536C21.215 108.622 21.1843 108.705 21.1271 108.77C21.0979 108.8 21.063 108.824 21.0243 108.841C20.9857 108.858 20.9441 108.867 20.902 108.868C20.8598 108.868 20.818 108.861 20.7788 108.845C20.7396 108.83 20.7039 108.807 20.6736 108.777C20.2029 108.334 19.7463 107.866 19.2677 107.394C19.2367 107.36 19.2122 107.321 19.1954 107.279L19.1806 107.262ZM10.0109 69.4468C9.98284 69.4001 9.96849 69.3466 9.96945 69.2922C10.131 68.6588 10.2952 68.0351 10.498 67.401C10.525 67.3194 10.5819 67.251 10.6573 67.2097C10.7326 67.1684 10.8209 67.1572 10.9042 67.1783C10.9858 67.2053 11.0541 67.2622 11.0954 67.3376C11.1367 67.4129 11.148 67.5011 11.1269 67.5844C10.9408 68.2037 10.7741 68.8178 10.5906 69.4467C10.5812 69.4884 10.5635 69.5278 10.5385 69.5626C10.5136 69.5973 10.482 69.6268 10.4455 69.6491C10.409 69.6714 10.3684 69.6862 10.3261 69.6926C10.2838 69.6989 10.2407 69.6967 10.1992 69.6862C10.1655 69.6558 10.1387 69.6187 10.1204 69.5771C10.1021 69.5356 10.0929 69.4907 10.0933 69.4454L10.0109 69.4468ZM21.9692 109.942C21.9563 109.889 21.9564 109.835 21.9694 109.782C21.9825 109.73 22.0082 109.682 22.0442 109.642C22.103 109.581 22.1827 109.544 22.2674 109.538C22.3522 109.533 22.4359 109.559 22.5021 109.612C22.9774 110.034 23.4816 110.447 23.9807 110.842C24.0454 110.896 24.0866 110.974 24.0957 111.058C24.1048 111.143 24.0811 111.227 24.0295 111.294C24.0039 111.328 23.9719 111.356 23.9353 111.377C23.8988 111.398 23.8584 111.412 23.8166 111.417C23.7747 111.423 23.7322 111.42 23.6915 111.409C23.6508 111.398 23.6127 111.379 23.5793 111.353C23.068 110.952 22.5612 110.528 22.0737 110.1C22.03 110.063 21.9987 110.014 21.984 109.958L21.9692 109.942ZM11.1511 65.7041C11.1356 65.6413 11.1396 65.5753 11.1624 65.5147C11.3704 64.9 11.6003 64.2897 11.8327 63.689C11.8474 63.648 11.8703 63.6104 11.9001 63.5786C11.9298 63.5467 11.9657 63.5213 12.0056 63.5038C12.0455 63.4863 12.0886 63.4772 12.1321 63.477C12.1757 63.4767 12.2188 63.4853 12.2589 63.5024C12.298 63.5183 12.3335 63.5418 12.3634 63.5716C12.3934 63.6013 12.4171 63.6367 12.4334 63.6756C12.4496 63.7146 12.4579 63.7564 12.4579 63.7986C12.4579 63.8408 12.4496 63.8825 12.4334 63.9215C12.2009 64.5221 11.9677 65.0815 11.7798 65.7324C11.7491 65.8118 11.6889 65.8764 11.6118 65.9125C11.5346 65.9486 11.4465 65.9535 11.3658 65.9261C11.3184 65.9105 11.2755 65.8837 11.2407 65.848C11.2059 65.8122 11.1802 65.7686 11.1659 65.7209L11.1511 65.7041ZM25.0633 112.332C25.0516 112.286 25.0501 112.237 25.0589 112.19C25.0678 112.143 25.0867 112.099 25.1145 112.06C25.1394 112.026 25.1708 111.997 25.2067 111.975C25.2427 111.954 25.2826 111.939 25.3242 111.933C25.3658 111.926 25.4082 111.928 25.449 111.938C25.4899 111.949 25.5283 111.967 25.5621 111.991C26.0727 112.352 26.6227 112.743 27.1545 113.066C27.2283 113.11 27.282 113.181 27.3042 113.264C27.3264 113.347 27.3154 113.435 27.2736 113.51C27.2527 113.548 27.2245 113.581 27.1907 113.607C27.1569 113.634 27.1181 113.653 27.0766 113.664C27.0352 113.675 26.9919 113.678 26.9494 113.672C26.9069 113.666 26.866 113.651 26.8292 113.629C26.28 113.28 25.7301 112.889 25.2124 112.541C25.1734 112.517 25.1397 112.485 25.1136 112.448C25.0875 112.41 25.0695 112.367 25.0607 112.323L25.0633 112.332ZM12.5748 62.0926C12.5551 62.0225 12.5607 61.9476 12.5907 61.8812C12.8547 61.2825 13.1432 60.6979 13.4221 60.1159C13.4429 60.0784 13.4711 60.0455 13.5049 60.0191C13.5388 59.9927 13.5776 59.9733 13.619 59.9622C13.6605 59.9511 13.7038 59.9484 13.7463 59.9544C13.7888 59.9604 13.8296 59.9748 13.8664 59.9969C13.9391 60.0394 13.9922 60.1089 14.014 60.1903C14.0358 60.2716 14.0246 60.3583 13.9829 60.4315C13.7014 61.0039 13.4303 61.6149 13.1585 62.1846C13.116 62.2573 13.0465 62.3104 12.9651 62.3322C12.8838 62.354 12.7971 62.3428 12.7239 62.3011C12.6883 62.281 12.6571 62.2539 12.6324 62.2213C12.6077 62.1888 12.5898 62.1515 12.58 62.1119L12.5748 62.0926ZM28.3614 114.44C28.3445 114.356 28.3576 114.268 28.3984 114.192C28.4441 114.12 28.5151 114.068 28.5974 114.046C28.6797 114.024 28.7672 114.034 28.8428 114.073C29.3939 114.392 29.9643 114.705 30.5296 114.998C30.6023 115.041 30.6554 115.11 30.6772 115.192C30.699 115.273 30.6878 115.36 30.6461 115.433C30.6018 115.504 30.5324 115.555 30.4517 115.577C30.371 115.598 30.2852 115.589 30.2114 115.549C29.6242 115.251 29.0151 114.949 28.4904 114.613C28.4298 114.571 28.3845 114.51 28.3614 114.44ZM14.3505 58.6352C14.3295 58.5527 14.3392 58.4655 14.3779 58.3897C14.7006 57.8167 15.0355 57.2507 15.3756 56.704C15.4196 56.6303 15.4907 56.5766 15.5736 56.5543C15.6566 56.5321 15.7449 56.5431 15.8199 56.585C15.8927 56.6275 15.9457 56.697 15.9675 56.7784C15.9893 56.8598 15.9781 56.9465 15.9364 57.0197C15.606 57.5637 15.2781 58.1175 14.9625 58.6783C14.9185 58.752 14.8475 58.8057 14.7645 58.828C14.6815 58.8502 14.5932 58.8392 14.5182 58.7973C14.4747 58.7888 14.4337 58.7708 14.398 58.7446C14.3623 58.7183 14.3329 58.6845 14.3119 58.6455L14.3505 58.6352ZM31.8451 116.199C31.824 116.126 31.8287 116.048 31.8584 115.978C31.9024 115.904 31.9734 115.85 32.0564 115.828C32.1394 115.806 32.2277 115.817 32.3027 115.859C32.8796 116.118 33.4757 116.373 34.0738 116.595C34.1521 116.628 34.2149 116.689 34.2492 116.767C34.2834 116.844 34.2865 116.932 34.2578 117.012C34.244 117.052 34.2219 117.09 34.193 117.121C34.1641 117.153 34.129 117.178 34.0898 117.195C34.0507 117.212 34.0084 117.221 33.9656 117.222C33.9229 117.222 33.8805 117.213 33.8413 117.196C33.231 116.966 32.6735 116.701 32.0361 116.448C31.9758 116.437 31.9197 116.41 31.874 116.369C31.8284 116.328 31.795 116.275 31.7775 116.217L31.8451 116.199ZM16.4368 55.3327C16.4219 55.2876 16.4179 55.2396 16.4251 55.1927C16.4323 55.1458 16.4506 55.1012 16.4784 55.0627C16.8526 54.5276 17.2295 54.0022 17.6282 53.4812C17.6539 53.4477 17.6859 53.4196 17.7224 53.3985C17.759 53.3774 17.7993 53.3638 17.8412 53.3583C17.883 53.3529 17.9255 53.3558 17.9662 53.3668C18.007 53.3779 18.0451 53.3968 18.0784 53.4227C18.1471 53.4759 18.192 53.554 18.2034 53.6401C18.2149 53.7262 18.1919 53.8133 18.1395 53.8826C17.7549 54.379 17.3781 54.9045 17.0109 55.4273C16.9669 55.5011 16.8959 55.5548 16.8129 55.577C16.7299 55.5992 16.6416 55.5882 16.5666 55.5464C16.5221 55.529 16.4816 55.5026 16.4476 55.469C16.4137 55.4354 16.387 55.3951 16.3692 55.3508L16.4368 55.3327ZM35.4586 117.591C35.4392 117.533 35.4408 117.47 35.4629 117.414C35.4897 117.332 35.5475 117.264 35.6239 117.224C35.7003 117.184 35.7892 117.176 35.8717 117.201C36.4742 117.402 37.0935 117.588 37.705 117.745C37.7461 117.755 37.7847 117.774 37.8186 117.799C37.8525 117.825 37.8809 117.857 37.9023 117.894C37.9237 117.93 37.9376 117.971 37.9432 118.013C37.9487 118.055 37.9459 118.098 37.9347 118.139C37.9113 118.22 37.8572 118.29 37.7839 118.333C37.7105 118.375 37.6234 118.388 37.5408 118.368C36.9145 118.195 36.2855 118.011 35.6689 117.835C35.6096 117.823 35.5547 117.795 35.5107 117.754C35.4666 117.713 35.4352 117.66 35.42 117.601L35.4586 117.591ZM18.7914 52.2585C18.7768 52.2074 18.7751 52.1536 18.7865 52.1017C18.798 52.0499 18.8221 52.0017 18.8568 51.9615C19.2729 51.4669 19.711 50.9768 20.1543 50.506C20.2119 50.4442 20.2917 50.4077 20.3762 50.4044C20.4606 50.4012 20.543 50.4315 20.6052 50.4888C20.6679 50.5478 20.7051 50.6289 20.7088 50.715C20.7126 50.801 20.6825 50.8851 20.6251 50.9493C20.1889 51.4078 19.7604 51.8953 19.3417 52.3802C19.3146 52.4131 19.2812 52.4402 19.2435 52.46C19.2059 52.4798 19.1646 52.4918 19.1222 52.4955C19.0798 52.4991 19.0371 52.4943 18.9966 52.4812C18.9561 52.4682 18.9186 52.4472 18.8863 52.4194C18.8203 52.3872 18.7642 52.3379 18.7238 52.2766L18.7914 52.2585ZM39.1966 118.598C39.1707 118.554 39.1573 118.504 39.1577 118.453C39.1754 118.37 39.2252 118.297 39.2963 118.251C39.3674 118.205 39.4539 118.189 39.5368 118.206C40.1721 118.336 40.8048 118.457 41.4298 118.548C41.4714 118.554 41.5115 118.568 41.5476 118.589C41.5837 118.611 41.615 118.64 41.6396 118.674C41.6642 118.708 41.6816 118.746 41.6908 118.787C41.7 118.829 41.7008 118.871 41.693 118.912C41.6873 118.954 41.6733 118.994 41.652 119.03C41.6307 119.067 41.6024 119.098 41.5688 119.124C41.5352 119.149 41.4969 119.168 41.4562 119.178C41.4155 119.189 41.373 119.191 41.3314 119.185C40.6942 119.087 40.0518 118.969 39.4068 118.842C39.3437 118.835 39.2839 118.81 39.2346 118.77C39.1853 118.73 39.1486 118.676 39.1289 118.616L39.1966 118.598ZM21.4387 49.4268C21.4246 49.3722 21.4247 49.3148 21.4391 49.2602C21.4534 49.2056 21.4816 49.1556 21.5208 49.115C21.9952 48.6704 22.4778 48.2305 22.9686 47.7953C23.0005 47.7674 23.0376 47.7461 23.0778 47.7327C23.118 47.7193 23.1604 47.7141 23.2027 47.7172C23.2449 47.7203 23.2861 47.7318 23.3239 47.751C23.3617 47.7701 23.3953 47.7967 23.4228 47.8289C23.4506 47.8608 23.4719 47.8979 23.4853 47.9381C23.4987 47.9783 23.504 48.0208 23.5009 48.063C23.4977 48.1053 23.4863 48.1465 23.4671 48.1842C23.4479 48.222 23.4214 48.2556 23.3892 48.2831C22.9111 48.7011 22.4284 49.1409 21.9774 49.5827C21.9468 49.6126 21.9106 49.6361 21.8708 49.6517C21.8309 49.6674 21.7884 49.6748 21.7456 49.6738C21.7029 49.6727 21.6608 49.663 21.6218 49.6454C21.5828 49.6277 21.5478 49.6024 21.5188 49.571C21.4565 49.5472 21.4044 49.5027 21.3711 49.445L21.4387 49.4268ZM43.0371 119.215L43.0086 119.108C43.0182 119.023 43.0608 118.944 43.1274 118.89C43.194 118.835 43.2794 118.809 43.3652 118.816C43.8438 118.864 44.3296 118.899 44.8101 118.916L45.281 118.934C45.3656 118.938 45.4454 118.975 45.5028 119.037C45.5602 119.099 45.5906 119.182 45.5874 119.266C45.5869 119.309 45.5779 119.351 45.561 119.39C45.5441 119.429 45.5196 119.464 45.4889 119.494C45.4583 119.523 45.4221 119.546 45.3824 119.561C45.3427 119.577 45.3004 119.584 45.258 119.582L44.7871 119.564C44.2846 119.543 43.7989 119.508 43.3009 119.465C43.2194 119.467 43.1398 119.44 43.0766 119.389C43.0134 119.337 42.9708 119.265 42.9566 119.185L43.0371 119.215ZM46.9132 119.346L46.8924 119.269C46.8916 119.183 46.924 119.101 46.9826 119.039C47.0413 118.977 47.1217 118.94 47.207 118.936C47.8351 118.923 48.4799 118.895 49.1291 118.845C49.1706 118.842 49.2125 118.846 49.2521 118.859C49.2918 118.872 49.3285 118.893 49.36 118.92C49.3914 118.947 49.4171 118.981 49.4354 119.018C49.4536 119.056 49.4642 119.096 49.4663 119.138C49.4738 119.223 49.4475 119.307 49.3931 119.372C49.3387 119.437 49.2607 119.477 49.1763 119.485C48.5173 119.537 47.8629 119.568 47.2252 119.583C47.1818 119.592 47.137 119.593 47.0935 119.584C47.05 119.575 47.0087 119.558 46.9721 119.533C46.9354 119.508 46.9042 119.476 46.8802 119.439C46.8563 119.401 46.8401 119.36 46.8326 119.316L46.9132 119.346ZM50.7797 119.055L50.7668 119.007C50.7571 118.923 50.7809 118.839 50.8329 118.773C50.885 118.707 50.961 118.664 51.0446 118.653C51.711 118.564 52.3499 118.476 52.9613 118.388C53.0026 118.381 53.0449 118.382 53.0856 118.392C53.1264 118.401 53.1648 118.419 53.1986 118.444C53.2323 118.468 53.2607 118.5 53.282 118.536C53.3032 118.572 53.317 118.612 53.3223 118.654C53.3296 118.695 53.3285 118.738 53.3192 118.779C53.3099 118.82 53.2925 118.859 53.2681 118.894C53.2436 118.928 53.2126 118.958 53.1768 118.98C53.1409 119.002 53.101 119.017 53.0593 119.024C52.4134 119.125 51.7745 119.213 51.1233 119.295C51.0777 119.313 51.0285 119.32 50.9797 119.315C50.9308 119.311 50.8838 119.295 50.8424 119.268C50.801 119.242 50.7664 119.206 50.7415 119.164C50.7166 119.122 50.7021 119.074 50.6991 119.025L50.7797 119.055ZM54.6046 118.455C54.5974 118.413 54.5984 118.371 54.6077 118.329C54.617 118.288 54.6344 118.249 54.6589 118.215C54.6833 118.18 54.7144 118.151 54.7502 118.129C54.786 118.106 54.8259 118.091 54.8676 118.084C55.4858 117.919 56.1247 117.83 56.7507 117.694C56.7925 117.684 56.8358 117.682 56.8781 117.689C56.9204 117.697 56.9609 117.712 56.997 117.736C57.0332 117.759 57.0643 117.789 57.0885 117.824C57.1128 117.86 57.1296 117.9 57.1381 117.942C57.148 117.984 57.1494 118.027 57.1422 118.069C57.135 118.112 57.1193 118.152 57.0962 118.188C57.073 118.224 57.0428 118.255 57.0074 118.28C56.972 118.304 56.932 118.321 56.8899 118.329C56.2621 118.497 55.6161 118.598 54.985 118.715C54.9359 118.739 54.8816 118.751 54.827 118.748C54.7725 118.745 54.7196 118.728 54.6734 118.699C54.6272 118.67 54.5892 118.629 54.5631 118.581C54.5369 118.533 54.5235 118.479 54.5241 118.425L54.6046 118.455ZM58.3919 117.637C58.3808 117.596 58.3783 117.553 58.3845 117.511C58.3906 117.469 58.4053 117.429 58.4277 117.393C58.4501 117.357 58.4796 117.325 58.5145 117.301C58.5494 117.277 58.5888 117.26 58.6304 117.252C59.2583 117.084 59.8765 116.918 60.4947 116.752C60.5767 116.731 60.664 116.742 60.7375 116.784C60.811 116.827 60.8646 116.897 60.8866 116.979C60.8962 117.02 60.8977 117.062 60.8909 117.104C60.8841 117.145 60.8692 117.185 60.8471 117.221C60.8249 117.256 60.796 117.287 60.7618 117.312C60.7277 117.336 60.689 117.354 60.6481 117.364C60.0299 117.529 59.402 117.697 58.7742 117.866C58.7274 117.889 58.6756 117.901 58.6232 117.9C58.5709 117.899 58.5196 117.885 58.474 117.859C58.4283 117.834 58.3896 117.797 58.3612 117.753C58.3329 117.709 58.3157 117.659 58.3114 117.607L58.3919 117.637ZM62.1552 116.691C62.1333 116.609 62.1433 116.523 62.183 116.449C62.2228 116.374 62.2894 116.318 62.3693 116.292C62.9585 116.134 63.5767 115.968 64.198 115.698C64.2796 115.67 64.3687 115.676 64.4464 115.713C64.524 115.75 64.5841 115.816 64.6137 115.897C64.6388 115.979 64.6322 116.067 64.5953 116.144C64.5584 116.221 64.4938 116.281 64.4145 116.313C63.7732 116.547 63.1435 116.747 62.5085 116.927C62.4266 116.949 62.3392 116.938 62.2657 116.895C62.1922 116.853 62.1386 116.783 62.1166 116.701L62.1552 116.691ZM65.8009 115.382C65.78 115.307 65.7876 115.226 65.8222 115.156C65.8568 115.086 65.916 115.03 65.9885 115.001C66.5641 114.753 67.1468 114.494 67.7436 114.21C67.8216 114.174 67.9107 114.169 67.9918 114.198C68.0729 114.226 68.1397 114.285 68.1779 114.362C68.2141 114.441 68.2183 114.53 68.1898 114.611C68.1612 114.692 68.1022 114.759 68.0251 114.797C67.4187 115.084 66.8264 115.346 66.2411 115.596C66.1609 115.629 66.0708 115.629 65.9903 115.597C65.9098 115.564 65.8455 115.501 65.8113 115.421L65.8009 115.382ZM69.3122 113.727C69.292 113.656 69.2982 113.579 69.3295 113.512C69.3609 113.445 69.4154 113.391 69.4831 113.361C70.036 113.067 70.6057 112.759 71.1729 112.442C71.2494 112.399 71.3396 112.389 71.4237 112.413C71.5078 112.437 71.5789 112.494 71.6214 112.57C71.6606 112.646 71.6688 112.734 71.6444 112.816C71.62 112.898 71.5648 112.967 71.4905 113.009C70.9137 113.329 70.344 113.637 69.7717 113.935C69.6951 113.972 69.6076 113.977 69.5272 113.95C69.4468 113.923 69.3798 113.867 69.3399 113.792L69.3122 113.727ZM72.6982 111.836C72.6814 111.768 72.6872 111.696 72.7144 111.631C72.7417 111.566 72.7891 111.511 72.8497 111.475C73.395 111.153 73.9447 110.809 74.4944 110.465C74.5294 110.441 74.569 110.425 74.6105 110.417C74.6521 110.409 74.6949 110.41 74.7362 110.419C74.7775 110.429 74.8164 110.446 74.8506 110.471C74.8849 110.496 74.9136 110.528 74.9351 110.564C74.9588 110.599 74.9751 110.639 74.9829 110.68C74.9908 110.722 74.99 110.765 74.9807 110.806C74.9714 110.847 74.9537 110.886 74.9288 110.92C74.9039 110.955 74.8722 110.983 74.8358 111.005C74.2886 111.359 73.739 111.703 73.1841 112.027C73.1479 112.05 73.1077 112.064 73.0657 112.071C73.0237 112.078 72.9808 112.076 72.9396 112.066C72.8983 112.056 72.8595 112.037 72.8253 112.012C72.7912 111.987 72.7625 111.955 72.7408 111.918L72.6982 111.836ZM75.9693 109.749C75.9503 109.683 75.9529 109.613 75.9767 109.549C76.0006 109.485 76.0443 109.43 76.1015 109.392C76.6364 109.032 77.159 108.664 77.679 108.286C77.7129 108.261 77.7515 108.242 77.7927 108.231C77.8338 108.22 77.8767 108.218 77.9189 108.224C77.961 108.23 78.0015 108.244 78.0379 108.266C78.0744 108.288 78.1062 108.317 78.1313 108.352C78.1807 108.422 78.2005 108.509 78.1865 108.594C78.1725 108.679 78.1259 108.755 78.0565 108.806C77.5365 109.184 77.0068 109.564 76.4623 109.927C76.3929 109.976 76.3071 109.995 76.2236 109.981C76.1402 109.966 76.0659 109.919 76.017 109.85L75.9693 109.749ZM79.1036 107.46C79.0876 107.398 79.0901 107.332 79.1106 107.272C79.1311 107.211 79.1688 107.158 79.2191 107.118C79.734 106.721 80.2366 106.317 80.7173 105.909C80.7492 105.88 80.7869 105.858 80.8278 105.844C80.8688 105.831 80.9122 105.826 80.9552 105.83C80.9982 105.834 81.0399 105.847 81.0776 105.868C81.1153 105.889 81.1481 105.918 81.174 105.952C81.2015 105.984 81.2224 106.02 81.2355 106.059C81.2486 106.099 81.2536 106.141 81.2503 106.182C81.2469 106.224 81.2352 106.264 81.2159 106.301C81.1966 106.338 81.17 106.37 81.1378 106.397C80.6404 106.82 80.1378 107.224 79.6159 107.633C79.5827 107.659 79.5448 107.678 79.5042 107.689C79.4637 107.7 79.4213 107.704 79.3795 107.698C79.3378 107.693 79.2974 107.68 79.2608 107.659C79.2242 107.638 79.1921 107.611 79.1662 107.577L79.1036 107.46ZM79.3343 98.3908C79.166 97.7629 79.0821 97.1021 78.9938 96.4632C78.9862 96.4211 78.9874 96.3777 78.9973 96.3361C79.0073 96.2944 79.0258 96.2552 79.0517 96.221C79.0775 96.1869 79.1102 96.1584 79.1476 96.1375C79.1851 96.1166 79.2264 96.1037 79.269 96.0996C79.311 96.0934 79.3538 96.0957 79.395 96.1063C79.4361 96.1168 79.4746 96.1354 79.5085 96.1611C79.5423 96.1867 79.5707 96.2188 79.5921 96.2555C79.6134 96.2922 79.6272 96.3328 79.6327 96.3749C79.7159 96.9944 79.8358 97.6352 79.9699 98.2515C79.9798 98.2933 79.9812 98.3366 79.974 98.3789C79.9668 98.4213 79.9511 98.4617 79.928 98.4979C79.9048 98.534 79.8746 98.5651 79.8392 98.5894C79.8037 98.6136 79.7638 98.6305 79.7217 98.639C79.673 98.6615 79.6196 98.6718 79.5661 98.6691C79.5125 98.6663 79.4604 98.6505 79.4143 98.6231C79.3683 98.5957 79.3295 98.5575 79.3015 98.5117C79.2736 98.466 79.2572 98.4141 79.2537 98.3606L79.3343 98.3908ZM79.8364 100.265C79.8122 100.185 79.82 100.099 79.8581 100.025C79.8963 99.951 79.9618 99.8948 80.0408 99.8683C80.123 99.8434 80.2117 99.8516 80.288 99.891C80.3643 99.9305 80.4222 99.9982 80.4494 100.08C80.6176 100.708 80.8702 101.302 81.115 101.868C81.1458 101.949 81.1448 102.038 81.1124 102.118C81.08 102.198 81.0185 102.262 80.9403 102.298C80.9011 102.315 80.8591 102.323 80.8167 102.323C80.7742 102.323 80.7322 102.314 80.6931 102.298C80.654 102.281 80.6186 102.257 80.5889 102.227C80.5592 102.196 80.5358 102.16 80.5201 102.121C80.2701 101.536 80.0414 100.914 79.8286 100.236L79.8364 100.265ZM78.8137 94.5548L78.7956 94.4872C78.7626 93.8299 78.7694 93.1712 78.8158 92.5147C78.8212 92.4289 78.86 92.3485 78.9238 92.2908C78.9876 92.2331 79.0715 92.2026 79.1575 92.2058C79.1998 92.2084 79.2413 92.2194 79.2793 92.2382C79.3174 92.257 79.3514 92.2832 79.3792 92.3152C79.4071 92.3473 79.4283 92.3845 79.4416 92.4249C79.4549 92.4652 79.4601 92.5077 79.4568 92.5501C79.413 93.1856 79.4075 93.8232 79.4404 94.4594C79.4421 94.502 79.4352 94.5445 79.4203 94.5845C79.4053 94.6244 79.3825 94.661 79.3532 94.692C79.3238 94.723 79.2886 94.7478 79.2496 94.765C79.2105 94.7822 79.1684 94.7914 79.1258 94.7921C79.0827 94.8012 79.0383 94.8013 78.9952 94.7924C78.9522 94.7835 78.9114 94.7658 78.8755 94.7405C78.8395 94.7151 78.8092 94.6827 78.7864 94.6451C78.7636 94.6075 78.7487 94.5656 78.7428 94.522L78.8137 94.5548ZM81.366 103.81C81.3476 103.741 81.3525 103.668 81.3799 103.603C81.4074 103.537 81.4558 103.483 81.5176 103.448C81.592 103.409 81.6787 103.399 81.7598 103.422C81.8409 103.445 81.9103 103.497 81.9538 103.569C82.1113 103.848 82.2881 104.122 82.4598 104.376C82.8323 104.027 83.2023 103.67 83.553 103.317C83.6147 103.255 83.6984 103.22 83.7857 103.22C83.873 103.22 83.9568 103.255 84.0187 103.316C84.0749 103.379 84.1058 103.46 84.1055 103.545C84.1051 103.629 84.0734 103.71 84.0167 103.772C83.6396 104.142 83.2459 104.527 82.8302 104.908L83.0134 105.128C83.0665 105.196 83.0907 105.283 83.0808 105.369C83.0709 105.455 83.0277 105.533 82.9605 105.587C82.9273 105.613 82.8894 105.633 82.8488 105.644C82.8083 105.655 82.7659 105.658 82.7241 105.653C82.6823 105.648 82.642 105.635 82.6054 105.614C82.5688 105.593 82.5366 105.565 82.5108 105.532L82.216 105.166L82.147 105.101C82.119 105.051 82.1039 104.995 82.103 104.937C81.8694 104.606 81.6499 104.251 81.4376 103.884L81.366 103.81ZM79.1054 90.6979C79.0827 90.6527 79.0695 90.6034 79.0666 90.553C79.2075 89.8917 79.4366 89.2523 79.7478 88.6519C79.7918 88.5782 79.8628 88.5245 79.9458 88.5022C80.0287 88.48 80.1171 88.491 80.1921 88.5329C80.2296 88.5537 80.2625 88.5819 80.289 88.6157C80.3154 88.6495 80.3347 88.6883 80.3458 88.7298C80.3569 88.7712 80.3596 88.8145 80.3536 88.857C80.3477 88.8995 80.3332 88.9404 80.3111 88.9772C80.033 89.5292 79.8245 90.1137 79.6903 90.7171C79.6818 90.7583 79.6649 90.7972 79.6409 90.8317C79.6168 90.8661 79.586 90.8953 79.5503 90.9174C79.5146 90.9396 79.4747 90.9543 79.4332 90.9606C79.3917 90.9668 79.3493 90.9646 79.3086 90.954C79.237 90.9439 79.1709 90.9099 79.1211 90.8574C79.0714 90.8049 79.0408 90.7371 79.0345 90.6651L79.1054 90.6979ZM83.8103 106.788C83.7968 106.74 83.7951 106.689 83.8052 106.639C83.8153 106.59 83.837 106.543 83.8685 106.504C83.9233 106.439 84.0008 106.398 84.0852 106.389C84.1695 106.38 84.254 106.403 84.3213 106.455C84.6766 106.742 85.0651 106.986 85.4785 107.18C85.6203 107.246 85.7646 107.321 85.9161 107.384C85.9869 107.428 86.0383 107.497 86.0599 107.578C86.0815 107.659 86.0717 107.745 86.0325 107.818C86.0117 107.856 85.9835 107.889 85.9497 107.915C85.9159 107.942 85.8771 107.961 85.8356 107.972C85.7942 107.983 85.7509 107.986 85.7084 107.98C85.6659 107.974 85.625 107.959 85.5882 107.937C85.4368 107.874 85.2924 107.799 85.1383 107.727C84.6938 107.499 84.2738 107.227 83.8851 106.913C83.8216 106.877 83.7708 106.822 83.7394 106.756L83.8103 106.788ZM84.8129 102.223C84.7983 102.172 84.7966 102.118 84.808 102.067C84.8194 102.015 84.8436 101.967 84.8783 101.926C85.3234 101.424 85.7396 100.929 86.1075 100.448C86.1636 100.382 86.2426 100.34 86.3285 100.331C86.4144 100.321 86.5007 100.345 86.5699 100.396C86.6031 100.423 86.6307 100.455 86.6511 100.493C86.6715 100.53 86.6844 100.57 86.689 100.613C86.6935 100.655 86.6896 100.697 86.6776 100.738C86.6655 100.779 86.6455 100.816 86.6188 100.849C86.2438 101.343 85.8495 101.842 85.3658 102.355C85.3068 102.418 85.2256 102.455 85.1395 102.458C85.0535 102.462 84.9694 102.432 84.9052 102.375C84.8649 102.36 84.8289 102.335 84.8005 102.303C84.772 102.271 84.7519 102.232 84.742 102.191L84.8129 102.223ZM81.045 87.4658C81.0266 87.3972 81.0315 87.3245 81.0589 87.259C81.0863 87.1936 81.1348 87.1391 81.1965 87.1042C81.405 86.9862 81.6276 86.8952 81.8591 86.8335C82.3263 86.7151 82.8139 86.7011 83.2871 86.7925C83.3288 86.8002 83.3685 86.816 83.404 86.8391C83.4395 86.8623 83.4701 86.8922 83.4939 86.9272C83.5177 86.9623 83.5344 87.0017 83.5428 87.0432C83.5513 87.0847 83.5515 87.1275 83.5433 87.169C83.5365 87.2101 83.5216 87.2494 83.4993 87.2845C83.477 87.3197 83.4479 87.35 83.4137 87.3737C83.3794 87.3974 83.3408 87.4139 83.3 87.4223C83.2593 87.4307 83.2172 87.4308 83.1764 87.4226C82.7949 87.3547 82.4034 87.3679 82.0273 87.4614C81.8473 87.5072 81.6746 87.5778 81.5141 87.6713C81.4776 87.692 81.4372 87.7053 81.3955 87.7104C81.3538 87.7155 81.3114 87.7124 81.2709 87.7011C81.2304 87.6899 81.1925 87.6707 81.1594 87.6448C81.1263 87.6189 81.0986 87.5867 81.0779 87.5501L81.045 87.4658ZM87.2573 108.525C87.2396 108.46 87.2427 108.39 87.2661 108.326C87.2802 108.286 87.3021 108.249 87.3307 108.218C87.3592 108.186 87.3938 108.161 87.4324 108.143C87.4709 108.125 87.5127 108.114 87.5552 108.113C87.5977 108.111 87.6402 108.118 87.68 108.133C88.2781 108.355 88.8903 108.554 89.494 108.682C89.5345 108.693 89.5724 108.713 89.6054 108.739C89.6385 108.765 89.666 108.798 89.6864 108.834C89.7069 108.871 89.7199 108.912 89.7246 108.954C89.7294 108.996 89.7258 109.038 89.7141 109.078C89.7026 109.119 89.6832 109.157 89.6571 109.19C89.6309 109.223 89.5984 109.25 89.5616 109.271C89.5247 109.291 89.4842 109.304 89.4424 109.309C89.4005 109.314 89.3581 109.31 89.3176 109.299C88.6939 109.134 88.0694 108.929 87.4495 108.702C87.3902 108.696 87.3338 108.673 87.2871 108.636C87.2405 108.599 87.2055 108.549 87.1864 108.493L87.2573 108.525ZM87.1797 99.1563C87.1682 99.1123 87.1661 99.0663 87.1737 99.0214C87.1813 98.9765 87.1984 98.9338 87.2239 98.896C87.5657 98.364 87.874 97.8112 88.1469 97.2407C88.1909 97.167 88.2619 97.1133 88.3449 97.091C88.4279 97.0688 88.5162 97.0798 88.5912 97.1217C88.6639 97.1642 88.717 97.2337 88.7388 97.315C88.7606 97.3964 88.7494 97.4831 88.7077 97.5563C88.4206 98.1513 88.0982 98.7286 87.7422 99.2851C87.7214 99.3226 87.6932 99.3556 87.6594 99.382C87.6256 99.4084 87.5868 99.4277 87.5453 99.4388C87.5039 99.4499 87.4606 99.4526 87.4181 99.4466C87.3756 99.4407 87.3347 99.4262 87.2979 99.4042C87.2433 99.3797 87.1967 99.3405 87.1632 99.2909C87.1298 99.2413 87.111 99.1833 87.1088 99.1235L87.1797 99.1563ZM84.7268 87.8768C84.7066 87.799 84.7138 87.7167 84.7471 87.6436C84.7928 87.5717 84.8638 87.5196 84.9461 87.4975C85.0284 87.4755 85.116 87.4851 85.1915 87.5246C85.7871 87.8223 86.3576 88.168 86.8971 88.5583C86.931 88.5832 86.9597 88.6146 86.9814 88.6505C87.0032 88.6865 87.0177 88.7264 87.024 88.768C87.0303 88.8096 87.0284 88.852 87.0183 88.8928C87.0083 88.9336 86.9903 88.9721 86.9653 89.0059C86.9136 89.0753 86.8367 89.1216 86.7512 89.1349C86.6656 89.1481 86.5783 89.1272 86.508 89.0767C86.0019 88.7086 85.4648 88.3849 84.9029 88.1092C84.8415 88.0917 84.786 88.0578 84.7425 88.0111C84.6989 87.9643 84.669 87.9066 84.6559 87.8441L84.7268 87.8768ZM90.9882 109.545C90.9671 109.502 90.9548 109.456 90.9519 109.409C90.9596 109.368 90.9755 109.328 90.9986 109.292C91.0217 109.257 91.0516 109.226 91.0867 109.203C91.1217 109.179 91.1611 109.162 91.2026 109.154C91.2441 109.145 91.2869 109.145 91.3285 109.153C91.9586 109.264 92.5906 109.343 93.2271 109.4C93.3115 109.408 93.3893 109.449 93.4436 109.514C93.4979 109.579 93.5242 109.663 93.5167 109.747C93.5141 109.789 93.5031 109.831 93.4843 109.869C93.4655 109.907 93.4393 109.941 93.4073 109.969C93.3753 109.997 93.338 110.018 93.2977 110.031C93.2574 110.044 93.2148 110.05 93.1725 110.046C92.5141 109.985 91.8602 109.901 91.2178 109.783C91.1435 109.782 91.0722 109.753 91.0171 109.703C90.9619 109.654 90.9265 109.586 90.9173 109.512L90.9882 109.545ZM88.8039 95.636C88.7918 95.5805 88.7942 95.5228 88.8108 95.4685C88.9764 94.8762 89.0631 94.2647 89.0689 93.6497C89.0685 93.6077 89.0764 93.566 89.0921 93.527C89.1078 93.488 89.1311 93.4524 89.1605 93.4224C89.19 93.3924 89.2251 93.3685 89.2638 93.3521C89.3025 93.3356 89.344 93.327 89.3861 93.3266C89.4285 93.3248 89.4708 93.3317 89.5104 93.347C89.5501 93.3622 89.5861 93.3854 89.6164 93.4151C89.6467 93.4449 89.6706 93.4805 89.6865 93.5198C89.7025 93.5592 89.7102 93.6014 89.7092 93.6438C89.7057 94.319 89.6143 94.9908 89.4372 95.6423C89.4123 95.7253 89.3557 95.7952 89.2797 95.8369C89.2037 95.8786 89.1144 95.8887 89.031 95.865C88.9631 95.8597 88.8986 95.8336 88.8462 95.7902C88.7938 95.7467 88.7561 95.6882 88.7382 95.6225L88.8039 95.636ZM87.7951 90.1709C87.7798 90.1101 87.7816 90.0463 87.8003 89.9865C87.819 89.9267 87.8538 89.8732 87.901 89.8319C87.9666 89.7793 88.0503 89.7545 88.1339 89.7631C88.2176 89.7717 88.2945 89.8129 88.3481 89.8778C88.7926 90.4119 89.141 91.0191 89.3777 91.6724C89.3925 91.712 89.3994 91.7541 89.3979 91.7963C89.3964 91.8386 89.3866 91.8801 89.369 91.9185C89.3514 91.9569 89.3263 91.9915 89.2953 92.0201C89.2642 92.0488 89.2278 92.071 89.1881 92.0856C89.1487 92.1019 89.1063 92.1099 89.0637 92.1091C89.021 92.1083 88.979 92.0987 88.9402 92.0809C88.9014 92.0631 88.8667 92.0375 88.8383 92.0057C88.8099 91.9739 88.7883 91.9366 88.775 91.896C88.5587 91.3244 88.2516 90.7914 87.8655 90.3176C87.8028 90.2817 87.7547 90.225 87.7294 90.1574L87.7951 90.1709ZM94.838 109.849L94.8173 109.771C94.8184 109.685 94.8533 109.603 94.9144 109.542C94.9754 109.481 95.0579 109.446 95.1442 109.446C95.7748 109.442 96.417 109.405 97.0417 109.341C97.0841 109.336 97.1271 109.339 97.1681 109.351C97.2091 109.363 97.2474 109.383 97.2806 109.409C97.3138 109.436 97.3413 109.469 97.3616 109.507C97.3818 109.545 97.3943 109.586 97.3983 109.628C97.4058 109.713 97.3801 109.798 97.3265 109.865C97.2729 109.931 97.1955 109.974 97.1108 109.985C96.4667 110.054 95.8026 110.087 95.1527 110.095C95.0678 110.11 94.9806 110.091 94.9095 110.043C94.8384 109.994 94.7892 109.92 94.7723 109.835L94.838 109.849ZM98.6954 109.446C98.6855 109.405 98.6841 109.361 98.6913 109.319C98.6985 109.277 98.7142 109.236 98.7373 109.2C98.7605 109.164 98.7907 109.133 98.8261 109.109C98.8616 109.084 98.9015 109.068 98.9436 109.059C99.3396 108.953 99.726 108.849 100.122 108.743C100.344 108.684 100.566 108.624 100.789 108.565C100.829 108.553 100.871 108.548 100.913 108.553C100.955 108.557 100.995 108.569 101.032 108.589C101.069 108.609 101.102 108.636 101.129 108.668C101.155 108.701 101.175 108.738 101.187 108.779C101.201 108.819 101.207 108.862 101.203 108.905C101.2 108.948 101.188 108.99 101.168 109.028C101.149 109.066 101.122 109.1 101.088 109.127C101.055 109.155 101.017 109.175 100.976 109.187C100.744 109.249 100.522 109.309 100.29 109.371C99.8846 109.48 99.4789 109.589 99.0732 109.697C99.0269 109.717 98.9766 109.725 98.9265 109.722C98.8763 109.718 98.8277 109.703 98.7845 109.678C98.7413 109.652 98.7048 109.616 98.6779 109.574C98.651 109.531 98.6345 109.483 98.6297 109.433L98.6954 109.446ZM102.4 108.319C102.379 108.244 102.387 108.163 102.421 108.093C102.456 108.022 102.515 107.967 102.588 107.938C103.166 107.7 103.746 107.431 104.318 107.132C104.356 107.113 104.397 107.102 104.439 107.099C104.481 107.095 104.524 107.101 104.564 107.114C104.604 107.127 104.641 107.148 104.673 107.176C104.705 107.204 104.731 107.238 104.75 107.275C104.788 107.35 104.796 107.437 104.771 107.517C104.746 107.598 104.691 107.665 104.616 107.705C104.025 108.008 103.428 108.292 102.83 108.535C102.791 108.551 102.749 108.56 102.707 108.56C102.664 108.56 102.622 108.551 102.583 108.535C102.544 108.518 102.509 108.494 102.479 108.464C102.449 108.433 102.426 108.397 102.41 108.358L102.4 108.319ZM105.836 106.539C105.808 106.486 105.796 106.425 105.802 106.364C105.808 106.304 105.831 106.246 105.869 106.199C106.4 105.86 106.932 105.49 107.44 105.105C107.473 105.079 107.511 105.06 107.551 105.049C107.592 105.038 107.634 105.035 107.676 105.04C107.718 105.045 107.758 105.058 107.795 105.079C107.831 105.1 107.864 105.128 107.889 105.161C107.94 105.231 107.961 105.318 107.95 105.404C107.938 105.49 107.894 105.568 107.827 105.623C107.312 106.02 106.76 106.395 106.223 106.746C106.149 106.792 106.059 106.806 105.975 106.786C105.89 106.766 105.816 106.714 105.77 106.64L105.836 106.539ZM108.911 104.183C108.896 104.127 108.896 104.068 108.912 104.013C108.928 103.957 108.96 103.907 109.003 103.869C109.478 103.441 109.927 102.989 110.361 102.521C110.421 102.459 110.503 102.423 110.59 102.421C110.677 102.419 110.761 102.452 110.824 102.511C110.855 102.54 110.881 102.574 110.898 102.613C110.916 102.652 110.925 102.694 110.926 102.736C110.927 102.779 110.919 102.821 110.902 102.86C110.886 102.9 110.862 102.935 110.831 102.965C110.391 103.445 109.923 103.902 109.448 104.371C109.384 104.428 109.299 104.458 109.213 104.454C109.127 104.45 109.046 104.412 108.987 104.349L108.911 104.183ZM111.549 101.354C111.538 101.306 111.538 101.257 111.548 101.21C111.559 101.162 111.58 101.117 111.61 101.079C112.004 100.58 112.371 100.057 112.726 99.527C112.77 99.4533 112.841 99.3996 112.924 99.3773C113.007 99.3551 113.095 99.3661 113.17 99.408C113.208 99.4288 113.241 99.457 113.267 99.4908C113.294 99.5246 113.313 99.5635 113.324 99.6049C113.335 99.6464 113.338 99.6896 113.332 99.7321C113.326 99.7746 113.312 99.8155 113.29 99.8523C112.928 100.394 112.541 100.922 112.14 101.434C112.086 101.502 112.008 101.547 111.922 101.559C111.836 101.57 111.749 101.547 111.68 101.495C111.598 101.469 111.528 101.414 111.483 101.341L111.549 101.354ZM113.688 98.1307C113.677 98.0913 113.674 98.0502 113.679 98.0097C113.684 97.9693 113.697 97.9303 113.718 97.8949C114.023 97.3366 114.315 96.7617 114.574 96.1849C114.591 96.1463 114.615 96.1115 114.646 96.0824C114.676 96.0533 114.712 96.0304 114.751 96.0151C114.79 95.9998 114.832 95.9924 114.874 95.9932C114.916 95.9941 114.957 96.0032 114.996 96.0201C115.034 96.037 115.069 96.0612 115.098 96.0916C115.127 96.1219 115.15 96.1576 115.166 96.1968C115.181 96.236 115.188 96.2778 115.187 96.3198C115.187 96.3619 115.177 96.4033 115.161 96.4418C114.897 97.0406 114.598 97.6277 114.288 98.2079C114.244 98.2816 114.173 98.3353 114.09 98.3576C114.007 98.3798 113.919 98.3688 113.844 98.3269C113.794 98.3098 113.748 98.2822 113.71 98.246C113.672 98.2098 113.642 98.1659 113.622 98.1172L113.688 98.1307ZM115.268 94.6014C115.254 94.5398 115.255 94.4758 115.27 94.4145C115.48 93.8094 115.669 93.1998 115.816 92.5909C115.826 92.5492 115.843 92.5098 115.868 92.475C115.893 92.4403 115.925 92.4109 115.961 92.3885C115.998 92.3662 116.038 92.3514 116.081 92.3451C116.123 92.3387 116.166 92.3409 116.208 92.3515C116.29 92.3729 116.362 92.4257 116.406 92.4987C116.451 92.5718 116.466 92.6593 116.447 92.7428C116.286 93.3762 116.102 94.0051 115.913 94.6147C115.9 94.6555 115.879 94.6932 115.851 94.7255C115.823 94.7579 115.789 94.7844 115.751 94.8034C115.712 94.8223 115.671 94.8334 115.628 94.8359C115.585 94.8385 115.542 94.8324 115.502 94.8181C115.43 94.8211 115.359 94.7996 115.3 94.7569C115.242 94.7143 115.199 94.6531 115.18 94.5834L115.268 94.6014ZM116.197 90.8429L116.166 90.727C116.265 90.0959 116.329 89.46 116.359 88.8219C116.367 88.7373 116.407 88.659 116.471 88.6032C116.536 88.5475 116.619 88.5186 116.704 88.5227C116.789 88.5281 116.87 88.5668 116.927 88.6307C116.985 88.6945 117.016 88.7784 117.013 88.8643C116.968 89.5079 116.906 90.1663 116.81 90.8132C116.797 90.8986 116.75 90.9753 116.681 91.0268C116.611 91.0783 116.524 91.1006 116.439 91.0887C116.364 91.0873 116.291 91.0597 116.235 91.0105C116.178 90.9613 116.14 90.8938 116.128 90.8197L116.197 90.8429Z" fill="#999999"/>
</svg>
