<svg width="14" height="14" viewBox="0 0 14 14" fill="none" xmlns="http://www.w3.org/2000/svg">
<path fill-rule="evenodd" clip-rule="evenodd" d="M3.00005 1.5C3.00005 0.671573 3.67162 0 4.50005 0H9.50005C10.3285 0 11 0.671573 11 1.5V2H14V3H0V2H3.00005V1.5ZM10 1.5V2H4.00005V1.5C4.00005 1.22386 4.22391 1 4.50005 1H9.50005C9.77619 1 10 1.22386 10 1.5ZM4.50097 4.03119L5.00097 12.0312L5.99903 11.9688L5.49903 3.96881L4.50097 4.03119ZM3.01399 12.53L2.4991 3.96998L1.5009 4.03002L2.01579 12.5901C2.06343 13.3821 2.71964 14 3.51309 14H10.4869C11.2804 14 11.9366 13.3821 11.9842 12.5901L12.4991 4.03002L11.5009 3.96998L10.986 12.53C10.9701 12.794 10.7514 13 10.4869 13H3.51309C3.2486 13 3.02987 12.794 3.01399 12.53ZM8.50097 3.96881L8.00097 11.9688L8.99903 12.0312L9.49903 4.03119L8.50097 3.96881Z" fill="white"/>
</svg>
