<svg xmlns="http://www.w3.org/2000/svg" viewBox="0 0 273.12 80.17" role="img" class="landing-devices__icon--appletv4k" title="Apple TV 4K"><path d="M89.459 9.847v13.23h10.636v8.73H89.46v31.117c0 4.815 2.117 7.038 6.773 7.038 1.164 0 3.068-.159 3.81-.265v8.784c-1.27.265-3.81.477-6.297.477-11.007 0-15.293-4.234-15.293-14.923V31.808h-8.15v-8.732h8.15V9.846h11.007zM137.323 78.525h-11.68l-19.645-55.44h11.627l13.779 44.552h.264l13.779-44.553h11.416l-19.54 55.44zM255.56 23.08l-18.48 24.194h-.347V23.08h-13.29v55.512h13.29V67.25l6.115-7.871L255.1 78.592h17.023l-20.167-30.856L271.05 23.08zM180.377 58.023l13.792-22.772h.267v23.158h-14.06v-.386zm7.235-34.943l-20.897 34.506v12.157h27.714v8.85h13.314v-8.85h8.532V58.41h-8.532V23.08h-20.131zM47.896 19.129c-6.518-.482-12.048 3.64-15.133 3.64-3.13 0-7.957-3.536-13.074-3.44-6.72.099-12.912 3.91-16.377 9.927C-3.667 41.369 1.53 59.32 8.328 69.15c3.326 4.803 7.292 10.216 12.5 10.019 5.015-.198 6.912-3.244 12.973-3.244 6.057 0 7.766 3.244 13.068 3.147 5.397-.1 8.816-4.903 12.117-9.733 3.82-5.575 5.39-10.973 5.483-11.259-.12-.045-10.52-4.036-10.624-16.018-.094-10.019 8.177-14.835 8.553-15.066-4.695-6.915-11.947-7.678-14.502-7.867zM43.874 12.64C46.642 9.294 48.505 4.634 47.992 0c-3.984.158-8.803 2.654-11.66 5.998-2.56 2.962-4.808 7.705-4.197 12.245 4.44.343 8.973-2.255 11.74-5.603z"/></svg>