<svg viewBox="0 0 555 422" fill="none" xmlns="http://www.w3.org/2000/svg">
	<rect x="32.5" y="1.5" width="456" height="355" rx="5.5" fill="#f25f4c" stroke="black" stroke-width="3"/>
	<path d="M380 110L414 110C417.866 110 421 113.134 421 117V355.5H380V110Z" fill="black" fill-opacity="0.2"/>
	<rect x="1.5" y="89.5" width="400" height="331" rx="5.5" fill="#fffffe" stroke="black" stroke-width="3"/>
	<rect x="26.5" y="118.5" width="231" height="279" rx="3.5" fill="#ff8906" stroke="black" stroke-width="3"/>
	<path d="M91.1101 238.13C65.4261 226.694 49.0606 205.78 39.1852 183.565C29.3036 161.337 25.9694 137.907 26.2971 121.669C26.3326 119.913 27.8001 118.5 29.6666 118.5H254.001C255.934 118.5 257.501 120.067 257.501 122V355.097C257.269 354.352 257.03 353.574 256.78 352.762C256.405 351.545 256.008 350.253 255.58 348.888C253.504 342.251 250.791 334.084 246.934 325.392C239.221 308.012 226.898 288.458 205.818 274.743C195.354 267.935 187.168 264.118 179.684 261.764C172.227 259.419 165.52 258.546 158.112 257.581L158.069 257.575L158.024 257.569C143.251 255.645 125.154 253.288 91.1101 238.13Z" fill="#fffffe" stroke="black" stroke-width="3"/>
	<rect x="271.5" y="118.5" width="30" height="279" rx="3.5" fill="#fffffe" stroke="black" stroke-width="3"/>
	<path d="M265 371.875C265 371.075 265.893 370.599 266.557 371.044L271.669 374.473C272.283 374.885 272.253 375.798 271.613 376.169L266.501 379.13C265.835 379.517 265 379.036 265 378.265L265 371.875Z" fill="black"/>
	<path d="M309 371.875C309 371.075 308.107 370.599 307.443 371.044L302.331 374.473C301.717 374.885 301.747 375.798 302.387 376.169L307.499 379.13C308.165 379.517 309 379.036 309 378.265L309 371.875Z" fill="black"/>
	<rect x="315.5" y="177.5" width="63" height="47" rx="3.5" fill="#f25f4c" stroke="black" stroke-width="3"/>
	<rect x="315.5" y="118.5" width="63" height="47" rx="3.5" fill="#ff8906" stroke="black" stroke-width="3"/>
	<circle cx="54.5" cy="24.5" r="6" fill="#fffffe" stroke="black" stroke-width="3"/>
	<circle cx="75.5" cy="24.5" r="6" fill="#fffffe" stroke="black" stroke-width="3"/>
	<circle cx="96.5" cy="24.5" r="6" fill="#fffffe" stroke="black" stroke-width="3"/>
	<path fill-rule="evenodd" clip-rule="evenodd" d="M489 39.731C486.91 42.4436 483.103 43.2715 480.044 41.5609L474.917 38.6939C470.251 36.0849 464.5 39.4577 464.5 44.8036V49.8696C464.5 53.7356 461.366 56.8696 457.5 56.8696H451.599C446.307 56.8696 442.929 62.5162 445.431 67.1795L448.778 73.4165C450.547 76.7116 449.413 80.8146 446.203 82.734L441.261 85.69C436.669 88.4363 436.73 95.1102 441.373 97.7708L446.193 100.533C449.416 102.381 450.635 106.424 448.969 109.745L446.555 114.557C444.22 119.212 447.604 124.696 452.812 124.696H457.5C461.366 124.696 464.5 127.83 464.5 131.696V135.97C464.5 141.258 470.139 144.637 474.802 142.143L480.227 139.241C483.234 137.633 486.921 138.435 489 141.047V39.731Z" fill="black" fill-opacity="0.2"/>
	<path d="M493.305 20.4491L496.802 26.0264C499.208 29.8632 504.199 31.14 508.152 28.9299L513.386 26.0031C517.052 23.9532 521.57 26.6033 521.57 30.8036V36.4623C521.57 40.866 524.934 44.5405 529.32 44.9292L534.961 45.4289C539.08 45.7939 541.338 50.4041 539.101 53.8825L536.232 58.3445C533.614 62.4145 534.918 67.8453 539.097 70.284L543.66 72.9462C547.336 75.0913 547.288 80.42 543.572 82.4973L539.09 85.0035C534.912 87.3401 533.486 92.6653 535.939 96.777L537.452 99.3128C539.638 102.979 536.997 107.63 532.728 107.63H528.5C523.806 107.63 520 111.436 520 116.13V121.531C520 125.764 515.418 128.41 511.751 126.294L508.069 124.17C504.174 121.922 499.203 123.097 496.726 126.849L493.234 132.141C491.035 135.471 486.133 135.426 483.998 132.055L480.708 126.864C478.326 123.103 473.445 121.818 469.52 123.918L464.094 126.82C460.43 128.779 456 126.125 456 121.97V117.696C456 113.001 452.194 109.196 447.5 109.196H442.811C438.72 109.196 436.061 104.887 437.895 101.23L440.309 96.4177C442.332 92.3853 440.852 87.4751 436.938 85.2318L432.118 82.4694C428.471 80.3789 428.422 75.1351 432.03 72.9773L436.973 70.0214C440.87 67.6907 442.247 62.7084 440.1 58.7072L436.753 52.4702C434.786 48.8062 437.441 44.3696 441.599 44.3696H447.5C452.194 44.3696 456 40.564 456 35.8696V30.8036C456 26.6033 460.518 23.9532 464.184 26.0031L469.312 28.8701C473.317 31.1095 478.376 29.7661 480.742 25.8348L483.933 20.5344C486.048 17.0207 491.126 16.9745 493.305 20.4491Z" fill="#e53170" stroke="black" stroke-width="3"/>
	<circle cx="488.5" cy="76.5" r="44" fill="#ff8906" stroke="black" stroke-width="3"/>
	<path d="M504 65C504 62.2386 501.761 60 499 60C496.239 60 494 62.2386 494 65" stroke="black" stroke-width="3" stroke-linecap="round"/>
	<path d="M486 69C486 71.7614 483.761 74 481 74C478.239 74 476 71.7614 476 69" stroke="black" stroke-width="3" stroke-linecap="round"/>
	<path d="M468 65C468 62.2386 465.761 60 463 60C460.239 60 458 62.2386 458 65" stroke="black" stroke-width="3" stroke-linecap="round"/>
	<path d="M32 47H437" stroke="black" stroke-width="3"/>
	<circle cx="321.5" cy="247.5" r="6" fill="#ff8906" stroke="black" stroke-width="3"/>
	<path d="M337 248H378.5" stroke="black" stroke-width="3" stroke-linecap="round"/> 
	<circle cx="321.5" cy="303.5" r="6" fill="#fffffe" stroke="black" stroke-width="3"/>
	<path d="M337 304H378.5" stroke="black" stroke-width="3" stroke-linecap="round"/>
	<circle cx="169" cy="336" r="6.5" fill="#fffffe" stroke="black" stroke-width="3"/>
  <circle cx="321.5" cy="275.5" r="6" fill="#fffffe" stroke="black" stroke-width="3"/>
	<path d="M337 276H378.5" stroke="black" stroke-width="3" stroke-linecap="round"/>
  <!-- color picker points -->
	<path d="M158 336H162" stroke="black" stroke-width="3" stroke-linecap="round"/>
	<path d="M176 336H180" stroke="black" stroke-width="3" stroke-linecap="round"/>
	<path d="M169 347L169 343" stroke="black" stroke-width="3" stroke-linecap="round"/>
	<path d="M169 328L169 324" stroke="black" stroke-width="3" stroke-linecap="round"/>
</svg>