<svg width="50" height="50" viewBox="0 0 50 50" fill="none" xmlns="http://www.w3.org/2000/svg">
<path opacity="0.1" fill-rule="evenodd" clip-rule="evenodd" d="M25 50C38.8071 50 50 38.8071 50 25C50 11.1929 38.8071 0 25 0C11.1929 0 0 11.1929 0 25C0 38.8071 11.1929 50 25 50Z" fill="#D9B346"/>
<g clip-path="url(#clip0_2_136)">
<path d="M36.9537 26.1084C36.7382 23.941 35.7699 21.8976 34.2271 20.3547C32.9085 19.0362 31.2947 18.1889 29.5966 17.8122V16.6212C30.2902 16.4486 30.8057 15.8208 30.8057 15.0746C30.8057 14.1958 30.0908 13.4808 29.2119 13.4808H25.8369C24.958 13.4808 24.2431 14.1958 24.2431 15.0746C24.2431 15.8208 24.7586 16.4486 25.4522 16.6212V17.8155C23.7592 18.1939 22.1508 19.04 20.836 20.3547C20.5483 20.6425 20.2829 20.9443 20.0401 21.258C20.0283 21.2571 20.0165 21.2562 20.0045 21.2562H16.6641C16.4053 21.2562 16.1954 21.4661 16.1954 21.725C16.1954 21.9839 16.4053 22.1937 16.6641 22.1937H19.4022C19.0585 22.7691 18.7814 23.3734 18.5705 23.9954H13.4688C13.2099 23.9954 13 24.2053 13 24.4642C13 24.7231 13.2099 24.933 13.4688 24.933H18.3056C18.1705 25.526 18.093 26.1295 18.0729 26.7347H16C15.7412 26.7347 15.5313 26.9446 15.5313 27.2035C15.5313 27.4624 15.7412 27.6722 16 27.6722H18.0879C18.1275 28.279 18.225 28.8826 18.3806 29.474H15.3438C15.0849 29.474 14.875 29.6839 14.875 29.9427C14.875 30.2016 15.0849 30.4115 15.3438 30.4115H18.6797C19.1396 31.628 19.8582 32.7681 20.836 33.7459C22.3803 35.2902 24.4258 36.2588 26.5955 36.4731C26.9052 36.5037 27.2151 36.5188 27.5245 36.5188C29.3537 36.5188 31.1597 35.9895 32.692 34.9916C32.909 34.8503 32.9703 34.5599 32.829 34.343C32.6878 34.126 32.3974 34.0647 32.1804 34.206C28.8261 36.3902 24.3339 35.9179 21.4989 33.083C18.1725 29.7566 18.1725 24.3441 21.4989 21.0177C24.8252 17.6914 30.2377 17.6914 33.5641 21.0177C36.3954 23.849 36.8702 28.3374 34.6932 31.69C34.5522 31.9072 34.6139 32.1975 34.831 32.3385C35.0482 32.4795 35.3384 32.4177 35.4794 32.2006C36.6426 30.4093 37.1662 28.2457 36.9537 26.1084ZM25.1806 15.0747C25.1806 14.7128 25.475 14.4184 25.8369 14.4184H29.2119C29.5738 14.4184 29.8682 14.7128 29.8682 15.0747C29.8682 15.4365 29.5738 15.7309 29.2119 15.7309H29.1278H25.9209H25.8369C25.475 15.7309 25.1806 15.4365 25.1806 15.0747ZM26.3897 17.6544V16.6684H28.6591V17.6527C27.9055 17.5631 27.1431 17.5636 26.3897 17.6544Z" fill="#D9B346"/>
<path d="M33.8953 32.9454C33.7715 32.9454 33.651 32.9956 33.5639 33.0828C33.4762 33.17 33.4265 33.2909 33.4265 33.4142C33.4265 33.5375 33.4762 33.6584 33.5639 33.7456C33.651 33.8332 33.7716 33.8829 33.8953 33.8829C34.0185 33.8829 34.139 33.8332 34.2267 33.7456C34.3139 33.6584 34.364 33.5375 34.364 33.4142C34.364 33.2909 34.3139 33.17 34.2267 33.0828C34.139 32.9956 34.0185 32.9454 33.8953 32.9454Z" fill="#D9B346"/>
<path d="M27.531 19.7786C23.5213 19.7786 20.2592 23.0406 20.2592 27.0504C20.2592 31.0601 23.5213 34.3221 27.531 34.3221C31.5406 34.3221 34.8028 31.0601 34.8028 27.0504C34.8028 23.0406 31.5406 19.7786 27.531 19.7786ZM27.531 33.3846C24.0382 33.3846 21.1967 30.5431 21.1967 27.0504C21.1967 23.5576 24.0382 20.7161 27.531 20.7161C31.0237 20.7161 33.8652 23.5576 33.8652 27.0504C33.8652 30.5431 31.0237 33.3846 27.531 33.3846Z" fill="#D9B346"/>
<path d="M30.496 23.422L28.1742 25.7437C27.9801 25.6477 27.7617 25.5934 27.5308 25.5934C27.2999 25.5934 27.0816 25.6477 26.8874 25.7437L25.8483 24.7046C25.6652 24.5215 25.3685 24.5215 25.1854 24.7046C25.0023 24.8876 25.0023 25.1844 25.1854 25.3675L26.2244 26.4066C26.1284 26.6007 26.0742 26.8191 26.0742 27.05C26.0742 27.8532 26.7276 28.5066 27.5308 28.5066C28.334 28.5066 28.9874 27.8532 28.9874 27.05C28.9874 26.8191 28.9332 26.6007 28.8372 26.4066L31.0908 24.153L31.1589 24.0849C31.3419 23.9018 31.3419 23.605 31.1589 23.422C30.9759 23.2389 30.6791 23.2389 30.496 23.422ZM27.5308 27.5691C27.2446 27.5691 27.0117 27.3363 27.0117 27.05C27.0117 26.7638 27.2446 26.5309 27.5308 26.5309C27.817 26.5309 28.0499 26.7638 28.0499 27.05C28.0499 27.3363 27.817 27.5691 27.5308 27.5691Z" fill="#D9B346"/>
<path d="M32.5426 26.5872H32.1083C31.8494 26.5872 31.6395 26.797 31.6395 27.0559C31.6395 27.3148 31.8494 27.5247 32.1083 27.5247H32.5426C32.8014 27.5247 33.0113 27.3148 33.0113 27.0559C33.0113 26.797 32.8014 26.5872 32.5426 26.5872Z" fill="#D9B346"/>
<path d="M22.953 26.5759H22.5187C22.2599 26.5759 22.05 26.7858 22.05 27.0447C22.05 27.3036 22.2599 27.5134 22.5187 27.5134H22.953C23.2118 27.5134 23.4217 27.3036 23.4217 27.0447C23.4217 26.7858 23.2118 26.5759 22.953 26.5759Z" fill="#D9B346"/>
<path d="M27.5379 22.9411C27.7968 22.9411 28.0067 22.7312 28.0067 22.4723V22.0381C28.0067 21.7792 27.7968 21.5693 27.5379 21.5693C27.2791 21.5693 27.0692 21.7792 27.0692 22.0381V22.4723C27.0692 22.7312 27.2791 22.9411 27.5379 22.9411Z" fill="#D9B346"/>
<path d="M27.5266 31.1589C27.2678 31.1589 27.0579 31.3688 27.0579 31.6277V32.0619C27.0579 32.3208 27.2678 32.5307 27.5266 32.5307C27.7855 32.5307 27.9954 32.3208 27.9954 32.0619V31.6277C27.9954 31.3688 27.7855 31.1589 27.5266 31.1589Z" fill="#D9B346"/>
<path d="M13.4688 29.4738C13.3455 29.4738 13.2245 29.5239 13.1373 29.6111C13.0502 29.6983 13 29.8192 13 29.9425C13 30.0663 13.0501 30.1867 13.1373 30.2739C13.2246 30.3611 13.3455 30.4113 13.4688 30.4113C13.592 30.4113 13.713 30.3611 13.8001 30.2739C13.8873 30.1867 13.9375 30.0658 13.9375 29.9425C13.9375 29.8192 13.8873 29.6983 13.8001 29.6111C13.713 29.5239 13.592 29.4738 13.4688 29.4738Z" fill="#D9B346"/>
</g>
<defs>
<clipPath id="clip0_2_136">
<rect width="24" height="24" fill="white" transform="translate(13 13)"/>
</clipPath>
</defs>
</svg>
