<svg width="50" height="50" viewBox="0 0 50 50" fill="none" xmlns="http://www.w3.org/2000/svg">
<path opacity="0.1" fill-rule="evenodd" clip-rule="evenodd" d="M25 50C38.8071 50 50 38.8071 50 25C50 11.1929 38.8071 0 25 0C11.1929 0 0 11.1929 0 25C0 38.8071 11.1929 50 25 50Z" fill="#D9B346"/>
<g clip-path="url(#clip0_2_106)">
<path d="M20.6263 22.3567C20.5623 22.2311 20.4371 22.1487 20.2967 22.1395L16.9318 21.9151C16.7574 21.8979 16.5962 22.0059 16.5326 22.1683L14.1068 28.3678C14.0416 28.5342 14.0948 28.7234 14.2372 28.8318C14.3084 28.8862 14.394 28.9134 14.4791 28.9134C14.5635 28.9134 14.6479 28.887 14.7191 28.8334L16.7326 27.3236L17.9049 27.5579C18.0961 27.5959 18.2873 27.4911 18.3569 27.3084C18.9865 25.6593 19.7444 24.1258 20.6087 22.7511C20.6835 22.6318 20.6903 22.4818 20.6263 22.3567ZM17.7321 26.7075L16.7138 26.504C16.6026 26.482 16.4866 26.5084 16.3954 26.5763L15.3639 27.3499L17.1705 22.7326L19.5856 22.8934C18.8896 24.0714 18.2681 25.3504 17.7321 26.7075Z" fill="#D9B346"/>
<path d="M28.085 33.0698L27.8606 29.7045C27.851 29.5637 27.7686 29.4385 27.643 29.3745C27.5178 29.3105 27.3678 29.3169 27.2487 29.3921C25.8736 30.2564 24.3405 31.0143 22.6914 31.6439C22.509 31.713 22.4034 31.9042 22.4419 32.0958L22.6762 33.2682L21.1664 35.2812C21.0592 35.4244 21.0596 35.6212 21.168 35.7636C21.2452 35.8651 21.3639 35.9215 21.4863 35.9215C21.5351 35.9215 21.5843 35.9123 21.6323 35.8947L27.8318 33.4689C27.9942 33.4054 28.0966 33.2438 28.085 33.0698ZM22.6498 34.6365L23.4233 33.605C23.4913 33.5142 23.5177 33.3982 23.4953 33.2866L23.2918 32.2687C24.6492 31.7327 25.9279 31.1112 27.1058 30.4152L27.267 32.8298L22.6498 34.6365Z" fill="#D9B346"/>
<path d="M24.5984 25.0004H21.9034C21.7582 25.0004 21.6246 25.0792 21.5538 25.206L18.1713 31.2839C18.0833 31.4423 18.1129 31.6407 18.2433 31.7663C18.3197 31.8399 18.42 31.8783 18.5208 31.8783C18.592 31.8783 18.6636 31.8595 18.7276 31.8203L24.8056 28.1422C24.9251 28.0698 24.9983 27.9402 24.9983 27.8002V25.4003C24.9984 25.1796 24.8192 25.0004 24.5984 25.0004ZM24.1985 27.575L19.6032 30.356L22.1382 25.8007V25.8003H24.1985V27.575Z" fill="#D9B346"/>
<path d="M36.9806 13.3856C36.9642 13.1908 36.8098 13.0364 36.615 13.02C36.4822 13.0096 23.3108 12.0901 17.6097 27.0226C17.5533 27.1702 17.5889 27.3365 17.7005 27.4482L19.6023 29.35C19.6915 29.4392 19.8163 29.48 19.9415 29.4632C20.0659 29.4452 20.1747 29.37 20.2355 29.26L22.1409 25.8003H24.2V27.5797L20.7195 29.7772C20.6167 29.8424 20.5491 29.9504 20.5355 30.0712C20.5219 30.192 20.5643 30.3123 20.6503 30.3983L22.5521 32.3002C22.6285 32.3766 22.7305 32.4174 22.8349 32.4174C22.8829 32.4174 22.9313 32.409 22.9777 32.391C37.9109 26.6894 36.9918 13.518 36.9806 13.3856ZM34.8823 20.4819C33.4788 23.9544 30.2671 28.6753 22.9336 31.5507L21.5697 30.1868L24.8135 28.1389C24.9294 28.0653 24.9999 27.9377 24.9999 27.8005V25.4007C24.9999 25.1799 24.8207 25.0007 24.5999 25.0007H21.9041C21.7581 25.0007 21.6241 25.0803 21.5537 25.2079L19.791 28.4084L18.4499 27.0669C23.4548 14.2991 34.1228 13.7768 36.1966 13.806C36.2114 14.7387 36.1258 17.4049 34.8823 20.4819Z" fill="#D9B346"/>
<path d="M19.8514 30.6658C19.7646 30.5506 19.6262 30.4946 19.4906 30.509C19.5046 30.373 19.4486 30.235 19.3338 30.1482C18.7307 29.6922 17.9523 29.5407 17.1976 29.7318C16.3965 29.9354 15.7413 30.4818 15.4005 31.2317L13.036 36.4341C12.9668 36.5861 12.9992 36.7649 13.1171 36.8825C13.1935 36.9593 13.2959 36.9997 13.3999 36.9997C13.456 36.9997 13.5123 36.9877 13.5655 36.9637L18.768 34.5987C19.5175 34.2583 20.0639 33.6031 20.2674 32.802C20.459 32.0481 20.3074 31.2693 19.8514 30.6658ZM19.4923 32.6052C19.3491 33.1696 18.9643 33.6307 18.4372 33.8707L14.2055 35.7942L16.1289 31.5621C16.3685 31.035 16.8301 30.6502 17.3944 30.507C17.5428 30.4694 17.692 30.451 17.8392 30.451C18.0884 30.451 18.3319 30.5042 18.5539 30.6078L18.1732 31.2818C18.0848 31.4381 18.1116 31.6345 18.2387 31.7613C18.3659 31.8889 18.5623 31.9153 18.7183 31.8269L19.3923 31.4457C19.5563 31.7985 19.5935 32.206 19.4923 32.6052Z" fill="#D9B346"/>
<path d="M36.9798 13.3861C36.9634 13.1913 36.809 13.0369 36.6142 13.0205C36.4582 13.0081 32.7505 12.7273 28.39 14.736C28.2712 14.7904 28.1868 14.9 28.1636 15.0288C28.1404 15.1576 28.182 15.2895 28.2744 15.3819L34.618 21.7255C34.6936 21.8011 34.7956 21.8426 34.9007 21.8426C34.9243 21.8426 34.948 21.8406 34.9715 21.8366C35.1003 21.8134 35.2095 21.7291 35.2643 21.6102C37.2734 17.2498 36.9926 13.5417 36.9798 13.3861ZM34.7711 20.7467L29.2532 15.2287C32.4453 13.8812 35.2407 13.7884 36.1962 13.8045C36.2122 14.7608 36.1222 17.5474 34.7711 20.7467Z" fill="#D9B346"/>
<path d="M30.6651 19.3352C29.3199 17.9901 27.1317 17.9901 25.7866 19.3352C24.4415 20.6804 24.4415 22.8685 25.7866 24.2137C26.459 24.8864 27.3425 25.2224 28.2257 25.2224C29.1092 25.2224 29.9923 24.886 30.6651 24.2137C32.0102 22.8685 32.0102 20.6803 30.6651 19.3352ZM30.0995 23.6481C29.0664 24.6812 27.3853 24.6812 26.3522 23.6481C25.3191 22.615 25.3191 20.9339 26.3522 19.9008C26.8686 19.3844 27.5473 19.126 28.2257 19.126C28.9041 19.126 29.5828 19.3844 30.0996 19.9008C31.1326 20.9339 31.1326 22.615 30.0995 23.6481Z" fill="#D9B346"/>
<path d="M29.0192 22.57C28.5808 23.0092 27.8673 23.0088 27.4285 22.57C26.9901 22.1313 26.9901 21.4181 27.4285 20.9794C27.8669 20.541 28.5804 20.5406 29.0192 20.9794C29.1752 21.1357 29.4288 21.1357 29.5848 20.9794C29.7411 20.823 29.7411 20.5702 29.5848 20.4138C28.8348 19.6635 27.6133 19.6635 26.863 20.4138C26.1126 21.1641 26.1126 22.3853 26.863 23.1356C27.2382 23.5108 27.7313 23.6984 28.2241 23.6984C28.7172 23.6984 29.21 23.5108 29.5848 23.1356C29.7411 22.9792 29.7411 22.7264 29.5848 22.57C29.4288 22.4137 29.1752 22.4137 29.0192 22.57Z" fill="#D9B346"/>
</g>
<defs>
<clipPath id="clip0_2_106">
<rect width="24" height="24" fill="white" transform="translate(13 13)"/>
</clipPath>
</defs>
</svg>
