<svg width="31" height="32" viewBox="0 0 31 32" fill="none" xmlns="http://www.w3.org/2000/svg">
<path fill-rule="evenodd" clip-rule="evenodd" d="M17.754 19.3569C19.2006 17.9287 21.546 17.9287 22.9926 19.3569L29.4751 25.7569C30.9216 27.1851 30.9216 29.5006 29.4751 30.9288C28.0285 32.357 25.6831 32.357 24.2365 30.9288L17.754 24.5288C16.3074 23.1006 16.3074 20.7851 17.754 19.3569Z" fill="#21D4B4"/>
<path d="M29.6339 14.6286C29.6339 22.7077 23.0002 29.2571 14.817 29.2571C6.63378 29.2571 0 22.7077 0 14.6286C0 6.54943 6.63378 0 14.817 0C23.0002 0 29.6339 6.54943 29.6339 14.6286ZM9.60089 14.6286C9.60089 17.4727 11.9362 19.7783 14.817 19.7783C17.6977 19.7783 20.0331 17.4727 20.0331 14.6286C20.0331 11.7844 17.6977 9.47881 14.817 9.47881C11.9362 9.47881 9.60089 11.7844 9.60089 14.6286Z" fill="#21D4B4"/>
</svg>
