<svg version="1.1" id="Sony" xmlns="http://www.w3.org/2000/svg" xmlns:xlink="http://www.w3.org/1999/xlink" width="72.7" height="12.8"
	 viewBox="0 0 72.7 12.8" style="enable-background:new 0 0 72.7 12.8;" xml:space="preserve">
<style type="text/css">
	.st0{fill:#FFFFFF;}
</style>
<path class="st0" d="M12.4,0.6H14v4h-1.5c0-0.7-1-2.7-5.3-2.8c-4.4-0.2-4.8,2-3.3,2.4c1.9,0.6,5.6,0.5,8,1.2c3.1,1,3.9,4.3,1.2,6
	c-2.4,1.6-6.6,1.4-9.6,0.4c-0.5-0.2-1.4-0.7-1.4,0v0.4H0.4V7.8H2C2,8,1.8,9,3.6,10c2.1,1.2,5.9,1.2,7.5,0.4c0.9-0.5,1-2.1-0.6-2.3
	C8.7,7.8,5.9,7.7,3.8,7.2C2.3,6.9,1.2,6.4,0.5,5.6C0,4.9-0.9,2.3,2.1,0.9c3.7-1.7,8.8-0.5,9.7,0.2C12.2,1.5,12.6,1.4,12.4,0.6"/>
<path class="st0" d="M30.7,6.4c0-3-2.1-4.7-4.9-4.7c-2.8,0-4.9,1.7-4.9,4.7c0,3,2.2,4.8,4.9,4.7C28.5,11,30.7,9.4,30.7,6.4 M25.9,0
	c4.1,0,8.4,2,8.4,6.5c-0.1,4.5-4.4,6.3-8.4,6.3c-4,0-8.7-1.8-8.8-6.3C17.1,2,21.9,0,25.9,0"/>
<path class="st0" d="M70.3,2.6C70,3,65.9,7.8,65.9,7.8v2.6c0,0.3,0,0.3,0.3,0.3h1.7v1.5h-7.7v-1.5c0,0,1.5,0,1.9,0
	c0.3,0,0.3-0.1,0.4-0.3V7.8c0,0-4.5-5-4.6-5c-0.2-0.2-0.6-0.6-1.3-0.6h-1.3V0.6h7.8v1.5h-0.8c-0.2,0-0.4,0.4-0.1,0.7
	c0.3,0.3,2.7,3.1,2.7,3.1l2.7-3.1c0.2-0.2,0.1-0.7-0.2-0.7h-1V0.6h6.4v1.5h-1.5C70.7,2.1,70.4,2.5,70.3,2.6"/>
<path class="st0" d="M40.5,9.9c0,0.8,0.4,0.7,0.7,0.7h1.5v1.5H36v-1.4h1.5c0.6,0,0.7-0.4,0.7-0.7V3c0-0.5,0-0.8-0.8-0.9H36l0-1.5
	h5.7l7.7,7.2V2.9c0-0.8-0.4-0.8-0.7-0.9h-1.4V0.6h6.6v1.5h-1.6c-0.4,0-0.5,0.4-0.6,0.7v9.3h-2.1l-9-7.9V9.9z"/>
</svg>
