<svg xmlns="http://www.w3.org/2000/svg" width="168" height="13" viewBox="0 0 168 13">
    <path fill="#FFF" fill-rule="evenodd" d="M165.303 3.653c-.532-.611-1.639-1.883-4.594-1.883-1.42 0-3.801.239-3.801 1.836 0 1.265 1.578 1.5 4.176 1.735 2.915.265 6.218.565 6.218 3.739 0 1.895-1.646 3.92-6.265 3.92-4.017 0-5.548-1.698-6.56-2.822l-.195-.216.212-.199 1.342-1.141.18.239c.648.862 1.734 2.304 5.185 2.304 1.874 0 4.062-.546 4.062-2.085 0-1.412-2.127-1.617-4.38-1.834-2.818-.271-6.013-.579-6.013-3.411 0-2.473 2.085-3.835 5.871-3.835 3.996 0 5.703 1.948 6.131 2.545l.156.216-1.465 1.186-.26-.294zM142.64.293h11.186v1.835h-9.181v3.219h7.673v1.834h-7.673v3.692h9.377v1.834H142.64V.293zm-4.468 12.414l-3.837-5.249h-4.264v5.249h-2.006V.293h7.168c4.108 0 4.97 1.953 4.97 3.591 0 2.253-1.789 3.266-3.508 3.496l3.968 5.327h-2.491zm.09-8.84c0-1.268-.91-1.739-3.358-1.739h-4.833v3.496h4.833c2.448 0 3.358-.476 3.358-1.757zM119.052 13c-2.926 0-6.413-.945-6.413-5.447V.293h2.006v7.26c0 2.44 1.483 3.678 4.407 3.678s4.407-1.238 4.407-3.678V.293h2.006v7.26c0 4.502-3.487 5.447-6.413 5.447zm-13.555-.293h-2.006V2.128h-5.754V.293h13.514v1.835h-5.754v10.579zm-14.709-1.542c2.19 0 3.784-.888 4.735-2.64l.129-.237 1.783.864-.134.258C96.047 11.826 93.873 13 90.656 13c-4.369 0-7.084-2.481-7.084-6.475C83.572 2.5 86.281 0 90.64 0c3.079 0 5.505 1.33 6.488 3.557l.113.255-1.762.808-.114-.266c-.921-2.136-3.069-2.584-4.709-2.584-3.253 0-5.045 1.752-5.045 4.934 0 2.794 1.935 4.461 5.177 4.461zM79.818.293h2.006v12.414h-2.006V.293zm-6.374 7.36h-5.26v5.054h-2.005V.293h7.265c3.244 0 4.888 1.236 4.888 3.673 0 2.447-1.644 3.687-4.888 3.687zm-.377-5.525h-4.883v3.691h4.883c2.769 0 3.325-.702 3.325-1.837 0-1.144-.556-1.854-3.325-1.854zM52.709 12.707h-2.006V7.738L44.217.293h2.636l4.853 5.636L56.56.293h2.635l-6.486 7.445v4.969zM32.167 2.581v10.126h-1.94V.293h2.455l8.463 9.297V.293h2.006v12.414h-1.848L32.167 2.581zM21.214 13c-3.499 0-7.265-2.011-7.265-6.426C13.949 2.642 16.868 0 21.214 0c4.345 0 7.265 2.642 7.265 6.574 0 4.415-3.766 6.426-7.265 6.426zm5.226-6.688c0-2.674-2.149-4.542-5.226-4.542-3.078 0-5.227 1.868-5.227 4.542 0 3.039 1.954 4.853 5.227 4.853 2.527 0 5.226-1.275 5.226-4.853zM13.02 9.08c0 1.895-1.646 3.92-6.266 3.92-4.015 0-5.547-1.698-6.56-2.821L0 9.962l.211-.199 1.343-1.141.18.239c.649.862 1.735 2.304 5.184 2.304 1.875 0 4.063-.546 4.063-2.085 0-1.412-2.127-1.617-4.379-1.834C3.783 6.975.588 6.667.588 3.835.588 1.362 2.673 0 6.459 0c3.996 0 5.703 1.948 6.131 2.545l.156.216-1.465 1.186-.261-.295c-.532-.611-1.64-1.882-4.593-1.882-1.42 0-3.801.239-3.801 1.836 0 1.265 1.577 1.5 4.176 1.735 2.914.265 6.218.565 6.218 3.739z"/>
</svg>
