<svg width="130" height="24" viewBox="0 0 130 24" fill="none" xmlns="http://www.w3.org/2000/svg">
<path d="M0.528 8.288V3.2H15.288V8.288H13.824L12.84 5.048H9.864V18.128L12.072 18.656V20H3.744V18.656L5.952 18.128V5.048H2.952L1.968 8.288H0.528ZM16.5203 20V18.728L18.5603 18.248V10.184H16.5203V8.912L20.3603 8H22.2563V9.44C23.4563 8.24 24.8803 7.64 26.5283 7.64C26.6243 7.944 26.6723 8.28 26.6723 8.648C26.6723 9.384 26.5923 10.072 26.4323 10.712L23.4083 10.208C23.0243 10.384 22.6403 10.64 22.2563 10.976V18.248L24.7763 18.728V20H16.5203ZM27.8674 17.024C27.8674 15.632 28.4354 14.576 29.5714 13.856C30.7234 13.12 32.5794 12.752 35.1394 12.752V12.032C35.1394 11.552 35.1314 11.208 35.1154 11C35.1154 10.776 35.0834 10.512 35.0194 10.208C34.9554 9.904 34.8594 9.688 34.7314 9.56C34.6194 9.432 34.4434 9.32 34.2034 9.224C33.9634 9.112 33.6674 9.056 33.3154 9.056L30.2674 11.696C29.1794 11.072 28.6354 10.104 28.6354 8.792L29.3554 8.48C29.6594 8.352 30.2514 8.184 31.1314 7.976C32.0114 7.752 32.8674 7.64 33.6994 7.64C37.1394 7.64 38.8594 9.016 38.8594 11.768V18.2H40.7314V19.232C40.6514 19.312 40.5394 19.416 40.3954 19.544C40.2514 19.672 39.9394 19.84 39.4594 20.048C38.9794 20.256 38.4834 20.36 37.9714 20.36C36.7554 20.36 35.8514 19.952 35.2594 19.136C34.1874 19.952 33.0194 20.36 31.7554 20.36C30.6514 20.36 29.7234 20.08 28.9714 19.52C28.2354 18.96 27.8674 18.128 27.8674 17.024ZM31.7314 16.808C31.7314 17.272 31.8834 17.64 32.1874 17.912C32.5074 18.184 32.8914 18.32 33.3394 18.32C34.0594 18.32 34.6594 18.056 35.1394 17.528V14.24C34.2434 14.24 33.4514 14.48 32.7634 14.96C32.0754 15.424 31.7314 16.04 31.7314 16.808ZM40.5937 2.984V1.712L44.4337 0.8H46.3297V8.864C47.3217 8.048 48.4737 7.64 49.7857 7.64C51.2737 7.64 52.4738 8.136 53.3858 9.128C54.3137 10.104 54.7777 11.576 54.7777 13.544C54.7777 15 54.4017 16.256 53.6497 17.312C52.9137 18.368 51.9937 19.144 50.8897 19.64C49.8017 20.12 48.6257 20.36 47.3617 20.36C45.5377 20.36 43.9617 19.952 42.6337 19.136V2.984H40.5937ZM46.3297 18.728C46.5217 18.76 46.7937 18.776 47.1457 18.776C48.2337 18.776 49.1377 18.336 49.8577 17.456C50.5938 16.576 50.9618 15.304 50.9618 13.64C50.9618 11 50.1537 9.68 48.5377 9.68C47.9137 9.68 47.1777 9.92 46.3297 10.4V18.728ZM63.0433 20.36C62.1313 20.36 61.2753 20.2 60.4753 19.88C59.6913 19.56 59.0113 19.12 58.4353 18.56C57.8593 18 57.4033 17.328 57.0673 16.544C56.7313 15.76 56.5633 14.904 56.5633 13.976C56.5633 13.048 56.7313 12.2 57.0673 11.432C57.4033 10.648 57.8593 9.976 58.4353 9.416C59.0113 8.856 59.6913 8.424 60.4753 8.12C61.2753 7.8 62.1313 7.64 63.0433 7.64C63.9553 7.64 64.8033 7.8 65.5873 8.12C66.3713 8.424 67.0513 8.856 67.6273 9.416C68.2193 9.976 68.6753 10.648 68.9953 11.432C69.3313 12.2 69.4993 13.048 69.4993 13.976C69.4993 14.888 69.3313 15.736 68.9953 16.52C68.6753 17.304 68.2193 17.984 67.6273 18.56C67.0513 19.12 66.3713 19.56 65.5873 19.88C64.8033 20.2 63.9553 20.36 63.0433 20.36ZM60.4273 13.976C60.4273 15.48 60.6433 16.664 61.0753 17.528C61.5233 18.376 62.1793 18.8 63.0433 18.8C63.9073 18.8 64.5553 18.376 64.9873 17.528C65.4353 16.664 65.6593 15.48 65.6593 13.976C65.6593 12.488 65.4353 11.32 64.9873 10.472C64.5553 9.624 63.9073 9.2 63.0433 9.2C62.1793 9.2 61.5233 9.624 61.0753 10.472C60.6433 11.32 60.4273 12.488 60.4273 13.976ZM77.7186 20.36C76.8066 20.36 75.9506 20.2 75.1506 19.88C74.3666 19.56 73.6866 19.12 73.1106 18.56C72.5346 18 72.0786 17.328 71.7426 16.544C71.4066 15.76 71.2386 14.904 71.2386 13.976C71.2386 13.048 71.4066 12.2 71.7426 11.432C72.0786 10.648 72.5346 9.976 73.1106 9.416C73.6866 8.856 74.3666 8.424 75.1506 8.12C75.9506 7.8 76.8066 7.64 77.7186 7.64C78.6306 7.64 79.4786 7.8 80.2626 8.12C81.0466 8.424 81.7266 8.856 82.3026 9.416C82.8946 9.976 83.3506 10.648 83.6706 11.432C84.0066 12.2 84.1746 13.048 84.1746 13.976C84.1746 14.888 84.0066 15.736 83.6706 16.52C83.3506 17.304 82.8946 17.984 82.3026 18.56C81.7266 19.12 81.0466 19.56 80.2626 19.88C79.4786 20.2 78.6306 20.36 77.7186 20.36ZM75.1026 13.976C75.1026 15.48 75.3186 16.664 75.7506 17.528C76.1986 18.376 76.8546 18.8 77.7186 18.8C78.5826 18.8 79.2306 18.376 79.6626 17.528C80.1106 16.664 80.3346 15.48 80.3346 13.976C80.3346 12.488 80.1106 11.32 79.6626 10.472C79.2306 9.624 78.5826 9.2 77.7186 9.2C76.8546 9.2 76.1986 9.624 75.7506 10.472C75.3186 11.32 75.1026 12.488 75.1026 13.976ZM85.3412 20V18.728L87.3812 18.248V2.984H85.3412V1.712L89.1812 0.8H91.0772V18.248L92.6372 18.728V20H85.3412ZM91.5092 14.216L95.7332 9.632L94.2932 9.272V8H99.9332V9.272L97.7492 9.728L94.9892 12.776L98.3732 18.272L100.293 18.728V20H95.0132L91.5092 14.216Z" fill="#222222"/>
<path d="M112.641 7.96058C112.794 7.76583 112.996 7.50221 113.157 7.31379C113.641 6.79446 113.704 6.72638 114.144 6.34242C114.275 6.24108 114.43 6.11917 114.581 6.00437C113.464 6.89896 113.322 7.88933 114.347 8.50129C114.345 8.50129 114.345 8.50129 114.345 8.50287C115.779 9.31987 118.92 9.14333 121.399 8.09675C123.8 7.08342 124.687 5.63388 123.502 4.77254C122.461 4.58808 121.221 4.56671 119.909 4.73296L119.772 4.52L119.885 4.16692C120.657 4.10121 121.39 4.11704 122.023 4.21917C122.176 4.24371 122.378 4.28567 122.528 4.31575C122.819 4.38304 122.978 4.42342 123.168 4.48121C123.362 4.53583 123.527 4.59046 123.816 4.69179C124.099 4.79708 124.221 4.84458 124.448 4.95146C124.702 5.06108 124.949 5.18506 125.187 5.32275C127.075 6.44612 125.901 8.49575 122.569 9.90017C119.247 11.2998 115.013 11.5199 113.116 10.41C113.115 10.4084 113.112 10.4068 113.107 10.4053H113.111C112.075 9.78458 111.966 8.88367 112.641 7.96058ZM121.285 15.8139L121.259 14.552L120.31 13.5545C117.178 14.2258 114.099 14.0817 112.387 13.1278C112.381 13.1215 112.367 13.1151 112.361 13.1088C111.392 12.5443 111.152 11.816 111.225 11.0243C110.998 12.1825 110.98 12.6005 111.013 13.5917C111.053 14.2124 111.432 14.7847 112.194 15.236L112.2 15.2423C114.025 16.3158 117.828 16.5486 121.285 15.8139ZM125.24 17.2587C120.818 18.9362 115.285 19.0352 112.881 17.4827C113.141 18.0828 113.494 18.6427 113.929 19.1437C116.135 20.5687 121.214 20.4776 125.271 18.9378C127.645 18.0377 129.143 16.8399 129.536 15.7173L129.647 15.3793C129.909 14.5227 129.958 13.8094 130 13.1745C129.952 14.5528 128.236 16.1203 125.24 17.2587ZM115.48 20.4895C115.619 20.6146 116.056 21.122 118.269 21.6825C118.868 21.8076 120.374 22.209 123.157 21.6255L123.173 21.3857L122.953 21.0595C120.372 21.6374 117.503 21.4442 115.48 20.4895ZM121.869 10.5074L124.22 12.1928C124.22 12.1928 124.723 12.5356 124.248 12.7763C123.775 13.0146 122.561 13.598 122.561 13.598L121.362 13.1745L120.76 13.4278L121.821 14.2995L121.829 15.6556L122.453 15.3935L122.866 14.248C122.866 14.248 124.136 13.7857 124.64 13.6115C125.146 13.4413 125.078 14.024 125.078 14.024L124.829 16.8035L125.657 16.4552L127.021 12.705C127.021 12.705 127.745 12.3725 128.253 12.0804C128.761 11.7883 128.935 11.3038 128.935 11.3038C128.935 11.3038 128.44 11.1019 127.869 11.2642C127.299 11.4249 126.554 11.7115 126.554 11.7115L122.695 10.1606L121.869 10.5074ZM116.895 5.17471L118.491 6.37725L118.927 6.3155L118.058 5.23646C118.058 5.23646 117.869 5.01321 118.124 4.96017C118.38 4.90633 119.027 4.78125 119.027 4.78125L119.515 5.14937L119.843 5.10346L119.471 4.54454L119.667 3.92467L119.35 3.96821L118.974 4.44004C118.974 4.44004 118.314 4.49862 118.055 4.51921C117.794 4.53821 117.906 4.273 117.906 4.273L118.406 3L117.968 3.06096L116.813 4.65142C116.813 4.65142 116.428 4.71792 116.149 4.79313C115.87 4.86754 115.723 5.07179 115.723 5.07179C115.723 5.07179 115.928 5.22854 116.216 5.223C116.508 5.21746 116.895 5.17471 116.895 5.17471ZM124.783 20.6265L123.75 20.1158L123.512 20.1942L124.124 20.712C124.124 20.712 124.255 20.8172 124.117 20.8735C123.98 20.9289 123.63 21.065 123.63 21.065L123.342 20.9431L123.17 21.0017L123.41 21.244L123.387 21.5978L123.566 21.5392L123.7 21.2519C123.7 21.2519 124.063 21.1497 124.208 21.1133C124.352 21.0761 124.319 21.236 124.319 21.236L124.183 22L124.421 21.9216L124.889 20.9115C124.889 20.9115 125.096 20.8347 125.244 20.7642C125.392 20.6937 125.451 20.5639 125.451 20.5639C125.451 20.5639 125.319 20.4958 125.157 20.5299C124.994 20.5623 124.783 20.6265 124.783 20.6265Z" fill="#666666"/>
</svg>
