<svg width="50" height="50" viewBox="0 0 50 50" fill="none" xmlns="http://www.w3.org/2000/svg">
<path opacity="0.1" fill-rule="evenodd" clip-rule="evenodd" d="M25 50C38.8071 50 50 38.8071 50 25C50 11.1929 38.8071 0 25 0C11.1929 0 0 11.1929 0 25C0 38.8071 11.1929 50 25 50Z" fill="#D9B346"/>
<g clip-path="url(#clip0_2_153)">
<path d="M27.0131 21.6533C25.8849 21.6533 24.9996 22.9103 24.9996 22.9103C24.9996 22.9103 24.1646 21.6533 22.9856 21.6533C21.8388 21.6533 20.9024 22.5984 20.8411 23.7426C20.8066 24.389 21.0151 24.881 21.309 25.3266C21.8962 26.2168 25.0034 28.3475 25.0034 28.3475C25.0034 28.3475 28.0989 26.2246 28.69 25.3266C28.9845 24.879 29.1925 24.389 29.1578 23.7426C29.0965 22.5984 28.16 21.6533 27.0131 21.6533Z" fill="#FBE593"/>
<path d="M24.9991 34.4469H24.9991C24.7402 34.4469 24.5303 34.6569 24.5304 34.9157L24.5305 35.3778C24.5305 35.6367 24.7404 35.8465 24.9992 35.8465H24.9993C25.2582 35.8464 25.468 35.6365 25.468 35.3776L25.4679 34.9156C25.4678 34.6567 25.258 34.4469 24.9991 34.4469Z" fill="#D9B346"/>
<path d="M27.7448 33.5848C27.5618 33.4017 27.265 33.4017 27.0819 33.5848C26.8988 33.7678 26.8988 34.0647 27.0819 34.2477L27.2846 34.4505C27.3761 34.542 27.4961 34.5878 27.616 34.5878C27.736 34.5878 27.856 34.542 27.9475 34.4505C28.1305 34.2674 28.1305 33.9706 27.9475 33.7875L27.7448 33.5848Z" fill="#D9B346"/>
<path d="M22.2548 33.5842L22.0521 33.7869C21.869 33.97 21.869 34.2668 22.0521 34.4499C22.1436 34.5414 22.2636 34.5872 22.3835 34.5872C22.5035 34.5872 22.6235 34.5414 22.715 34.4499L22.9177 34.2471C23.1008 34.0641 23.1008 33.7673 22.9177 33.5842C22.7347 33.4011 22.4379 33.4011 22.2548 33.5842Z" fill="#D9B346"/>
<path d="M25.0008 15.5532H25.0009C25.2598 15.5531 25.4696 15.3432 25.4695 15.0843L25.4695 14.6222C25.4694 14.3634 25.2595 14.1536 25.0007 14.1536H25.0006C24.7417 14.1536 24.5319 14.3635 24.532 14.6224L24.5321 15.0845C24.5321 15.3433 24.742 15.5532 25.0008 15.5532Z" fill="#D9B346"/>
<path d="M22.715 15.5498C22.532 15.3667 22.2352 15.3667 22.0521 15.5498C21.869 15.7328 21.869 16.0296 22.0521 16.2127L22.2548 16.4155C22.3464 16.507 22.4663 16.5527 22.5863 16.5527C22.7062 16.5527 22.8262 16.507 22.9177 16.4155C23.1008 16.2324 23.1008 15.9356 22.9177 15.7525L22.715 15.5498Z" fill="#D9B346"/>
<path d="M27.2856 15.5503L27.0828 15.753C26.8998 15.9361 26.8998 16.2329 27.0828 16.416C27.1744 16.5075 27.2943 16.5533 27.4143 16.5533C27.5342 16.5533 27.6542 16.5075 27.7457 16.416L27.9485 16.2132C28.1315 16.0302 28.1315 15.7334 27.9485 15.5503C27.7654 15.3672 27.4686 15.3672 27.2856 15.5503Z" fill="#D9B346"/>
<path d="M20.9702 17.9187C20.9702 17.4224 20.7769 16.9558 20.426 16.6049C20.075 16.2539 19.6084 16.0607 19.1121 16.0607C18.6159 16.0607 18.1492 16.2539 17.7983 16.6049C16.276 18.1272 15.2006 20.0268 14.6812 22.108C13.6777 22.6822 13 23.7635 13 25.0001C13 26.2367 13.6777 27.318 14.6812 27.8922C15.2006 29.9734 16.276 31.873 17.7983 33.3953C18.1492 33.7463 18.6158 33.9395 19.1121 33.9395C19.6084 33.9395 20.075 33.7463 20.426 33.3953C21.1504 32.6709 21.1504 31.4921 20.426 30.7676C19.5266 29.8683 18.8478 28.7656 18.4514 27.5638C19.1886 26.9526 19.6589 26.0303 19.6589 25.0001C19.6589 23.9699 19.1886 23.0476 18.4514 22.4364C18.8478 21.2347 19.5266 20.132 20.426 19.2326C20.7769 18.8817 20.9702 18.4151 20.9702 17.9187ZM19.763 31.4305C20.122 31.7894 20.122 32.3734 19.763 32.7324C19.5892 32.9062 19.358 33.002 19.1121 33.002C18.8663 33.002 18.6351 32.9062 18.4612 32.7324C17.2111 31.4823 16.2883 29.956 15.764 28.2815C15.9478 28.313 16.1367 28.3295 16.3294 28.3295C16.7914 28.3295 17.2317 28.2349 17.632 28.064C18.0821 29.3243 18.812 30.4795 19.763 31.4305ZM18.7214 25.0001C18.7214 26.319 17.6484 27.392 16.3294 27.392C15.0105 27.392 13.9375 26.319 13.9375 25.0001C13.9375 23.6812 15.0105 22.6082 16.3294 22.6082C17.6484 22.6082 18.7214 23.6812 18.7214 25.0001ZM19.763 18.5697C18.812 19.5207 18.0821 20.6759 17.632 21.9361C17.2317 21.7653 16.7914 21.6706 16.3294 21.6706C16.1367 21.6706 15.9478 21.6871 15.764 21.7187C16.2883 20.0441 17.2111 18.5179 18.4612 17.2678C18.635 17.0939 18.8662 16.9982 19.1121 16.9982C19.3579 16.9982 19.5892 17.0939 19.763 17.2678C19.9369 17.4417 20.0327 17.6728 20.0327 17.9187C20.0327 18.1646 19.9369 18.3958 19.763 18.5697Z" fill="#D9B346"/>
<path d="M36.9993 25.0001C36.9993 23.7635 36.3216 22.6822 35.3181 22.108C34.7987 20.0269 33.7233 18.1272 32.2011 16.6049C31.8501 16.2539 31.3835 16.0607 30.8872 16.0607C30.3909 16.0607 29.9243 16.2539 29.5733 16.6049C28.8489 17.3293 28.8489 18.5081 29.5733 19.2326C30.4727 20.1319 31.1515 21.2346 31.5479 22.4364C30.8107 23.0476 30.3405 23.9699 30.3405 25.0001C30.3405 26.0303 30.8107 26.9526 31.5479 27.5638C31.1515 28.7655 30.4727 29.8683 29.5733 30.7676C29.2224 31.1186 29.0292 31.5852 29.0292 32.0815C29.0292 32.5778 29.2224 33.0444 29.5733 33.3953C29.9243 33.7463 30.3909 33.9395 30.8872 33.9395C31.3835 33.9395 31.8501 33.7463 32.2011 33.3953C33.7233 31.8731 34.7987 29.9734 35.3181 27.8922C36.3216 27.318 36.9993 26.2367 36.9993 25.0001ZM30.2363 18.5697C29.8774 18.2108 29.8774 17.6268 30.2363 17.2678C30.4102 17.094 30.6413 16.9982 30.8872 16.9982C31.1331 16.9982 31.3642 17.094 31.5381 17.2678C32.7883 18.518 33.711 20.0442 34.2353 21.7188C34.0515 21.6872 33.8626 21.6707 33.6699 21.6707C33.2079 21.6707 32.7676 21.7653 32.3673 21.9362C31.9172 20.6759 31.1873 19.5207 30.2363 18.5697ZM31.2779 25.0001C31.2779 23.6812 32.351 22.6082 33.6699 22.6082C34.9888 22.6082 36.0618 23.6812 36.0618 25.0001C36.0618 26.319 34.9888 27.392 33.6699 27.392C32.351 27.392 31.2779 26.319 31.2779 25.0001ZM31.5381 32.7324C31.3643 32.9062 31.1331 33.002 30.8872 33.002C30.6414 33.002 30.4102 32.9062 30.2363 32.7324C30.0624 32.5585 29.9667 32.3273 29.9667 32.0815C29.9667 31.8356 30.0624 31.6044 30.2363 31.4306C31.1873 30.4795 31.9172 29.3243 32.3673 28.0641C32.7676 28.235 33.2079 28.3296 33.6699 28.3296C33.8626 28.3296 34.0515 28.3131 34.2353 28.2815C33.711 29.9561 32.7882 31.4823 31.5381 32.7324Z" fill="#D9B346"/>
</g>
<defs>
<clipPath id="clip0_2_153">
<rect width="24" height="24" fill="white" transform="translate(13 13)"/>
</clipPath>
</defs>
</svg>
