<svg width="50" height="50" viewBox="0 0 50 50" fill="none" xmlns="http://www.w3.org/2000/svg">
<path opacity="0.1" fill-rule="evenodd" clip-rule="evenodd" d="M25 50C38.8071 50 50 38.8071 50 25C50 11.1929 38.8071 0 25 0C11.1929 0 0 11.1929 0 25C0 38.8071 11.1929 50 25 50Z" fill="#D9B346"/>
<g clip-path="url(#clip0_2_96)">
<path d="M36.1321 20.5645L34.8274 21.0918C35.3356 22.347 35.5938 23.6777 35.5938 25.0469C35.5938 30.8628 30.8628 35.5938 25.0469 35.5938C22.4819 35.5938 20.0237 34.649 18.1128 32.9798L20.2184 32.6727L20.0165 31.2809L15.9062 31.8797V35.5938H17.3125V34.1402C19.4607 35.9658 22.1937 37 25.0469 37C31.6373 37 37 31.638 37 25.0469C37 23.4957 36.7075 21.9879 36.1321 20.5645Z" fill="#D9B346"/>
<path d="M24.9531 14.4062C27.5181 14.4062 29.9763 15.351 31.8872 17.0202L29.7816 17.3273L29.9835 18.7191L34.0938 18.1203V14.4062H32.6875V15.8598C30.5393 14.0342 27.8063 13 24.9531 13C18.3627 13 13 18.362 13 24.9531C13 26.5043 13.2925 28.0121 13.8679 29.4355L15.1726 28.9082C14.6644 27.653 14.4062 26.3223 14.4062 24.9531C14.4062 19.1372 19.1372 14.4062 24.9531 14.4062Z" fill="#D9B346"/>
<path d="M31.3281 25.7031V24.2969H29.8508C29.7305 23.4671 29.4094 22.7085 28.928 22.066L29.9713 21.0223L28.977 20.028L27.9338 21.0718C27.2913 20.5905 26.5328 20.2694 25.7031 20.1492V18.6719H24.2969V20.1492C23.4672 20.2694 22.7087 20.5905 22.0662 21.0718L21.023 20.028L20.0287 21.0223L21.072 22.066C20.5906 22.7085 20.2695 23.4671 20.1492 24.2969H18.6719V25.7031H20.1492C20.2695 26.5329 20.5906 27.2915 21.072 27.934L20.0287 28.9777L21.023 29.972L22.0662 28.9282C22.7087 29.4095 23.4672 29.7306 24.2969 29.8508V31.3281H25.7031V29.8508C26.5328 29.7306 27.2913 29.4095 27.9338 28.9282L28.977 29.972L29.9713 28.9777L28.928 27.934C29.4094 27.2915 29.7305 26.5329 29.8508 25.7031H31.3281ZM25 27.1094C23.8368 27.1094 22.8906 26.1632 22.8906 25C22.8906 23.8368 23.8368 22.8906 25 22.8906C26.1632 22.8906 27.1094 23.8368 27.1094 25C27.1094 26.1632 26.1632 27.1094 25 27.1094Z" fill="#D9B346"/>
</g>
<defs>
<clipPath id="clip0_2_96">
<rect width="24" height="24" fill="white" transform="translate(13 13)"/>
</clipPath>
</defs>
</svg>
